<?xml version="1.0" encoding="UTF-8"?>
<svg version="1.1" xmlns="http://www.w3.org/2000/svg" width="512" height="512">
<path d="M0 0 C8.29692149 6.80381496 12.90293527 14.51410334 14.6875 25.1875 C15.79703124 36.49618384 12.03453289 46.00951891 5.6875 55.1875 C2.41133126 59.01035195 -1.12801859 62.5519141 -4.70141602 66.09399414 C-5.74606022 67.14407125 -6.78985438 68.19499456 -7.83287048 69.24668884 C-10.64635572 72.0782782 -13.47218863 74.89722467 -16.30109525 77.71339726 C-19.27722972 80.67932865 -22.24350609 83.65509466 -25.21141052 86.6292572 C-30.19830794 91.62341328 -35.19353509 96.60912089 -40.19360352 101.59008789 C-45.94732123 107.32207628 -51.68653669 113.0682824 -57.41836411 118.8221541 C-62.36410941 123.78614728 -67.3177273 128.74218298 -72.27781242 133.69184774 C-75.22943077 136.63727783 -78.17839518 139.5852289 -81.12024117 142.54042244 C-83.89128551 145.32316089 -86.67219901 148.09566978 -89.46050453 150.86110878 C-90.47279497 151.86818206 -91.48183194 152.87854001 -92.48703384 153.89268875 C-101.15543234 162.63099988 -110.23529953 169.73919068 -121.3125 175.1875 C-120.55243216 175.18847681 -119.79236431 175.18945362 -119.00926411 175.19046003 C-73.95792468 175.24873651 -28.9066336 175.3225367 16.14464628 175.41648628 C21.55443843 175.4277544 26.96423085 175.43889286 32.37402344 175.44995117 C33.45101227 175.45215486 34.52800109 175.45435854 35.63762595 175.456629 C53.0743179 175.49199796 70.51100981 175.51686437 87.94772433 175.53784702 C105.84041767 175.55961225 123.73306448 175.59266957 141.62571824 175.63620156 C152.66575123 175.66270578 163.70572625 175.68041022 174.74578948 175.68684604 C182.31715729 175.69210366 189.88845215 175.70833329 197.45978086 175.73316566 C201.82752999 175.74716774 206.19514856 175.75635628 210.56292152 175.75250816 C214.56540459 175.74908886 218.56760917 175.75951482 222.57003523 175.78073552 C224.0143394 175.78598808 225.4586726 175.78625448 226.90297638 175.78089563 C240.20078142 175.73660029 250.80877738 177.66690114 260.6640625 187.07421875 C269.11107439 196.2221529 271.18800893 204.95515688 270.96484375 217.1328125 C270.48910978 227.36227622 264.71023501 235.64561573 257.375 242.4375 C250.66567296 247.90932894 243.05644198 250.30559402 234.51058578 250.3261652 C233.2346656 250.33163964 231.95874542 250.33711409 230.64416099 250.34275442 C229.22531881 250.34383063 227.80647657 250.34481532 226.38763428 250.34571838 C224.88275338 250.35028382 223.37787375 250.35528382 221.87299562 250.36068195 C217.73186291 250.37427451 213.59073843 250.38168466 209.44958925 250.38810861 C204.98607703 250.39610763 200.52258194 250.40980713 196.05908203 250.42282104 C188.32381476 250.44459085 180.58854575 250.4627335 172.85326385 250.47842598 C161.66928746 250.50112 150.48533002 250.52926349 139.3013697 250.55874526 C121.15697619 250.60642689 103.01257493 250.64968953 84.86816406 250.69018555 C67.24055376 250.72953756 49.61295035 250.77096309 31.98535156 250.81518555 C30.89913607 250.81790982 29.81292057 250.82063409 28.69378945 250.82344092 C23.24466997 250.83712035 17.79555059 250.85084063 12.34643126 250.86458123 C-32.87319814 250.97855498 -78.09284243 251.08536236 -123.3125 251.1875 C-122.49845703 251.58364502 -121.68441406 251.97979004 -120.84570312 252.38793945 C-119.77255859 252.91605225 -118.69941406 253.44416504 -117.59375 253.98828125 C-116.53220703 254.50817627 -115.47066406 255.02807129 -114.37695312 255.5637207 C-98.57348952 263.93759231 -85.60880647 279.73043841 -73.12915039 292.24047852 C-70.4915307 294.8834866 -67.8485701 297.52106981 -65.20507812 300.15820312 C-63.5048874 301.85905425 -61.80500669 303.56021534 -60.10546875 305.26171875 C-58.93651314 306.42763802 -58.93651314 306.42763802 -57.74394226 307.61711121 C-54.38203074 310.99331348 -51.09891008 314.38257165 -48.00561523 318.00756836 C-43.64588564 323.06412962 -38.85902894 327.68814057 -34.09502792 332.35787582 C-31.80336965 334.60683575 -29.52155826 336.8656832 -27.23900032 339.12387276 C-23.00805475 343.30941423 -18.77328182 347.49089584 -14.52197266 351.65576172 C-11.54622379 354.57175613 -8.58314998 357.50012987 -5.62778091 360.43677139 C-4.50889641 361.54400821 -3.38551904 362.64672597 -2.25738144 363.74453354 C7.33075219 373.08117175 14.40211525 382.5615914 15 396.4375 C14.71837823 406.04577207 12.08310586 414.90924265 5.6875 422.1875 C-2.7861793 430.17850136 -12.69265283 433.5376804 -24.15234375 433.3984375 C-36.92746084 432.54571028 -45.79423657 425.16625888 -54.49162292 416.40278625 C-55.2627872 415.63771309 -56.03395147 414.87263992 -56.82848436 414.08438271 C-59.39173652 411.53768186 -61.94424432 408.98048798 -64.49682617 406.4230957 C-66.34000793 404.58725873 -68.18380985 402.75204423 -70.02818298 400.91740417 C-74.50528076 396.46128697 -78.97416503 391.99702127 -83.43988987 387.5295094 C-87.07194793 383.89614019 -90.70656431 380.26534945 -94.34298134 376.636343 C-95.3931451 375.58827859 -96.44330798 374.5402133 -97.49347001 373.49214715 C-98.01627084 372.97038984 -98.53907168 372.44863254 -99.07771496 371.91106441 C-108.94864054 362.05901087 -118.80960608 352.19703456 -128.66768298 342.33212706 C-137.67304331 333.32119139 -146.69153541 324.32352968 -155.71621951 315.331951 C-164.99893394 306.08302288 -174.2722777 296.82479213 -183.53580648 287.556647 C-188.73025334 282.35996073 -193.92833454 277.16704027 -199.13637352 271.98397255 C-204.03427022 267.10936215 -208.91891564 262.22180075 -213.79502296 257.32539558 C-215.58292089 255.53409169 -217.37506526 253.74701424 -219.17181396 251.96458817 C-221.63110567 249.52354762 -224.07434539 247.06745238 -226.514328 244.60713196 C-227.22221016 243.91176765 -227.93009231 243.21640335 -228.65942544 242.4999674 C-237.84212729 233.15333222 -241.69201395 223.81784762 -241.68652344 210.88769531 C-241.45118165 200.7679986 -238.16408308 193.7720406 -231.20109558 186.42991638 C-230.68112005 185.87463491 -230.16114453 185.31935344 -229.62541217 184.74724525 C-222.19067532 176.86364119 -214.50424382 169.22293963 -206.8449707 161.55883789 C-205.11379483 159.82302308 -203.38281278 158.08701496 -201.65200806 156.35083008 C-196.98741156 151.67322319 -192.31959876 146.99883779 -187.65070748 142.32551885 C-184.72934614 139.40137596 -181.80871488 136.47650459 -178.88820457 133.55151176 C-170.78038328 125.43152612 -162.67163601 117.31246772 -154.55943012 109.19686222 C-153.7845576 108.42166035 -153.7845576 108.42166035 -152.99403108 107.63079783 C-152.21749689 106.85393622 -152.21749689 106.85393622 -151.42527515 106.06138045 C-150.37653278 105.01219464 -149.32779198 103.96300728 -148.27905273 102.91381836 C-147.75886073 102.39340493 -147.23866873 101.87299149 -146.70271333 101.33680796 C-138.25555977 92.88569786 -129.81519574 84.42784112 -121.37769184 75.96709795 C-112.68746858 67.25313463 -103.99160441 58.54483378 -95.29008549 49.84214967 C-90.41535411 44.96650407 -85.5430388 40.08849863 -80.67696571 35.20421028 C-76.10618355 30.61637573 -71.52770516 26.03631563 -66.94400406 21.46138763 C-65.26647271 19.78462606 -63.59149044 18.10530965 -61.91929817 16.4232235 C-59.63098495 14.12216924 -57.3335345 11.8306293 -55.03364563 9.54115295 C-54.37934879 8.87879971 -53.72505195 8.21644647 -53.05092794 7.53402191 C-38.34111038 -7.02121346 -18.05092359 -12.77608064 0 0 Z " fill="#000000" transform="translate(241.3125,42.8125)"/>
</svg>
