<svg xmlns="http://www.w3.org/2000/svg" id="Layer_1" data-name="Layer 1" viewBox="0 0 24 24" width="512" height="512"><path d="m20,0H4C1.794,0,0,1.794,0,4v12c0,2.206,1.794,4,4,4h2.923l3.749,3.157c.382.339.861.507,1.337.507.468,0,.931-.163,1.292-.484l3.848-3.18h2.852c2.206,0,4-1.794,4-4V4c0-2.206-1.794-4-4-4Zm-3.293,12.588l-2.535,2.535c-.585.584-1.494.876-2.158.876s-1.529-.32-2.086-.876l-2.636-2.636c-.391-.391-.391-1.023,0-1.414s1.023-.391,1.414,0l2.293,2.293v-7.367c0-.552.447-1,1-1s1,.448,1,1v7.467l2.293-2.293c.391-.391,1.023-.391,1.414,0s.391,1.023,0,1.414Z" fill="#4fad2c"/></svg>