<svg id="svg" version="1.1" xmlns="http://www.w3.org/2000/svg" xmlns:xlink="http://www.w3.org/1999/xlink" width="400" height="400" viewBox="0, 0, 400,400"><g id="svgg"><path id="path0" d="M140.000 98.280 C 136.702 100.003,135.348 102.234,135.014 106.490 C 134.871 108.311,134.810 151.740,134.877 203.000 L 135.000 296.200 136.000 297.964 C 137.854 301.236,141.261 303.007,145.157 302.726 C 147.469 302.558,147.655 302.465,160.300 295.152 C 161.015 294.738,162.230 294.040,163.000 293.600 C 163.770 293.160,165.030 292.440,165.800 292.000 C 168.384 290.524,169.761 289.727,178.600 284.602 C 188.084 279.103,189.260 278.423,191.400 277.200 C 192.170 276.760,193.430 276.040,194.200 275.600 C 196.004 274.569,196.317 274.389,208.400 267.400 C 220.483 260.411,220.796 260.231,222.600 259.200 C 223.370 258.760,224.630 258.040,225.400 257.600 C 228.372 255.902,229.587 255.199,235.335 251.854 C 238.599 249.954,241.325 248.400,241.394 248.400 C 241.462 248.400,242.731 247.663,244.212 246.763 C 245.694 245.863,247.513 244.783,248.253 244.363 C 251.722 242.398,252.558 241.916,265.200 234.600 C 276.053 228.320,277.205 227.654,279.400 226.400 C 281.595 225.146,282.747 224.480,293.600 218.200 C 303.817 212.288,305.278 211.443,307.700 210.054 C 312.839 207.107,313.501 206.546,314.764 204.070 C 315.901 201.841,315.901 198.159,314.764 195.930 C 313.501 193.454,312.839 192.893,307.700 189.946 C 305.411 188.633,303.972 187.800,295.000 182.598 C 286.161 177.473,284.784 176.676,282.200 175.200 C 281.430 174.760,280.170 174.040,279.400 173.600 C 277.205 172.346,276.053 171.680,265.200 165.400 C 252.558 158.084,251.722 157.602,248.253 155.637 C 247.513 155.217,245.694 154.137,244.212 153.237 C 242.731 152.337,241.462 151.600,241.394 151.600 C 241.325 151.600,238.599 150.046,235.335 148.146 C 229.587 144.801,228.372 144.098,225.400 142.400 C 224.630 141.960,223.370 141.240,222.600 140.800 C 220.967 139.867,221.527 140.190,208.400 132.596 C 197.950 126.551,196.625 125.786,194.200 124.400 C 193.430 123.960,192.170 123.240,191.400 122.800 C 189.260 121.577,188.084 120.897,178.600 115.398 C 169.761 110.273,168.384 109.476,165.800 108.000 C 165.030 107.560,163.815 106.861,163.100 106.448 C 145.012 95.980,144.649 95.852,140.000 98.280 " stroke="none" fill="#eaebf3" fill-rule="evenodd"></path><path id="path1" d="M182.568 7.949 C 182.687 8.141,180.763 8.415,178.292 8.558 C 172.704 8.882,170.784 9.073,168.022 9.578 C 166.824 9.797,165.760 9.893,165.658 9.792 C 165.557 9.690,165.258 9.786,164.995 10.004 C 164.732 10.222,163.763 10.431,162.841 10.467 C 161.919 10.503,161.073 10.683,160.959 10.866 C 160.846 11.050,160.302 11.200,159.750 11.200 C 159.199 11.200,158.428 11.371,158.037 11.580 C 157.647 11.789,156.589 12.004,155.687 12.057 C 154.786 12.110,154.138 12.299,154.247 12.477 C 154.413 12.745,152.144 13.012,151.100 12.847 C 150.935 12.821,150.800 12.980,150.800 13.200 C 150.800 13.420,150.271 13.600,149.624 13.600 C 148.977 13.600,148.336 13.780,148.200 14.000 C 148.064 14.220,147.333 14.400,146.576 14.400 C 145.819 14.400,145.200 14.580,145.200 14.800 C 145.200 15.020,144.671 15.200,144.024 15.200 C 143.377 15.200,142.736 15.380,142.600 15.600 C 142.464 15.820,141.913 16.000,141.376 16.000 C 140.839 16.000,140.400 16.180,140.400 16.400 C 140.400 16.620,139.860 16.800,139.200 16.800 C 138.540 16.800,138.000 16.980,138.000 17.200 C 138.000 17.420,137.460 17.600,136.800 17.600 C 136.140 17.600,135.600 17.747,135.600 17.928 C 135.600 18.108,134.700 18.500,133.600 18.800 C 132.500 19.100,131.600 19.453,131.600 19.585 C 131.600 19.717,131.105 19.866,130.500 19.916 C 129.895 19.966,129.340 20.185,129.267 20.403 C 129.193 20.622,128.698 20.800,128.167 20.800 C 127.635 20.800,127.200 20.980,127.200 21.200 C 127.200 21.420,126.840 21.600,126.400 21.600 C 125.960 21.600,125.600 21.780,125.600 22.000 C 125.600 22.220,125.060 22.400,124.400 22.400 C 123.740 22.400,123.199 22.535,123.197 22.700 C 123.193 23.059,121.256 24.000,120.520 24.000 C 120.234 24.000,120.000 24.180,120.000 24.400 C 120.000 24.620,119.670 24.800,119.267 24.800 C 118.863 24.800,118.398 24.935,118.233 25.100 C 118.068 25.265,117.813 25.406,117.667 25.414 C 117.520 25.422,117.019 25.641,116.553 25.900 C 116.087 26.160,115.592 26.258,115.453 26.119 C 115.314 25.980,115.200 26.077,115.200 26.333 C 115.200 26.590,114.859 26.800,114.443 26.800 C 114.026 26.800,113.583 27.067,113.458 27.393 C 113.328 27.731,112.965 27.885,112.615 27.750 C 112.277 27.621,112.000 27.714,112.000 27.957 C 112.000 28.201,111.730 28.400,111.400 28.400 C 111.070 28.400,110.800 28.580,110.800 28.800 C 110.800 29.020,110.528 29.200,110.195 29.200 C 109.474 29.200,108.046 29.964,107.204 30.800 C 106.872 31.130,106.330 31.459,106.000 31.530 C 105.670 31.602,105.340 31.827,105.267 32.030 C 105.193 32.234,104.803 32.400,104.400 32.400 C 103.997 32.400,103.607 32.536,103.533 32.702 C 103.460 32.868,102.190 33.612,100.710 34.356 C 99.231 35.101,98.116 35.865,98.234 36.055 C 98.351 36.245,98.167 36.400,97.824 36.400 C 97.481 36.400,97.200 36.591,97.200 36.824 C 97.200 37.057,97.043 37.150,96.852 37.032 C 96.661 36.914,95.986 37.263,95.352 37.808 C 94.718 38.353,93.975 38.799,93.700 38.800 C 93.425 38.800,93.200 38.980,93.200 39.200 C 93.200 39.420,92.970 39.600,92.688 39.600 C 92.407 39.600,91.917 39.960,91.600 40.400 C 91.283 40.840,90.703 41.200,90.312 41.200 C 89.920 41.200,89.599 41.335,89.599 41.500 C 89.597 41.882,87.289 43.442,86.975 43.274 C 86.845 43.204,86.438 43.483,86.070 43.893 C 85.701 44.303,84.770 45.071,84.000 45.600 C 83.230 46.129,82.309 46.886,81.953 47.281 C 81.597 47.676,81.002 48.000,80.629 48.000 C 80.257 48.000,80.064 48.180,80.200 48.400 C 80.336 48.620,80.302 48.801,80.124 48.802 C 79.946 48.803,79.225 49.343,78.522 50.002 C 77.819 50.661,77.112 51.200,76.951 51.200 C 76.791 51.200,75.629 52.280,74.369 53.600 C 73.109 54.920,71.884 56.000,71.646 56.000 C 71.408 56.000,70.369 56.810,69.335 57.800 C 68.302 58.790,67.309 59.600,67.128 59.600 C 66.948 59.600,66.800 59.870,66.800 60.200 C 66.800 60.530,66.637 60.800,66.437 60.800 C 65.964 60.800,60.800 65.964,60.800 66.437 C 60.800 66.637,60.530 66.800,60.200 66.800 C 59.870 66.800,59.600 66.952,59.600 67.138 C 59.600 67.324,58.610 68.498,57.400 69.747 C 56.190 70.996,55.200 72.201,55.200 72.425 C 55.200 72.648,54.345 73.697,53.300 74.754 C 50.461 77.627,48.800 79.577,48.800 80.037 C 48.800 80.263,48.620 80.336,48.400 80.200 C 48.180 80.064,48.000 80.257,48.000 80.629 C 48.000 81.002,47.676 81.597,47.281 81.953 C 46.886 82.309,46.129 83.230,45.600 84.000 C 45.071 84.770,44.526 85.490,44.389 85.600 C 44.252 85.710,43.793 86.425,43.370 87.188 C 42.946 87.951,42.285 88.930,41.900 89.363 C 41.515 89.797,41.200 90.321,41.200 90.529 C 41.200 90.736,40.812 91.242,40.339 91.653 C 39.865 92.064,39.629 92.400,39.814 92.400 C 39.999 92.400,39.753 92.771,39.267 93.224 C 38.780 93.677,38.467 94.184,38.570 94.351 C 38.673 94.518,38.407 94.907,37.979 95.215 C 37.550 95.524,37.200 96.007,37.200 96.288 C 37.200 96.570,37.020 96.800,36.800 96.800 C 36.580 96.800,36.400 97.171,36.400 97.624 C 36.400 98.077,36.220 98.336,36.000 98.200 C 35.780 98.064,35.600 98.323,35.600 98.776 C 35.600 99.229,35.448 99.600,35.263 99.600 C 35.077 99.600,34.494 100.455,33.965 101.500 C 33.437 102.545,32.790 103.626,32.528 103.902 C 32.267 104.179,31.938 104.764,31.799 105.202 C 31.660 105.641,31.378 106.000,31.173 106.000 C 30.968 106.000,30.800 106.360,30.800 106.800 C 30.800 107.240,30.665 107.601,30.500 107.603 C 30.141 107.607,29.200 109.544,29.200 110.280 C 29.200 110.566,29.020 110.800,28.800 110.800 C 28.580 110.800,28.400 111.070,28.400 111.400 C 28.400 111.730,28.220 112.000,28.000 112.000 C 27.780 112.000,27.600 112.416,27.600 112.925 C 27.600 113.433,27.233 114.243,26.784 114.725 C 26.336 115.206,26.072 115.600,26.198 115.600 C 26.325 115.600,26.203 116.005,25.928 116.500 C 25.653 116.995,25.422 117.520,25.414 117.667 C 25.406 117.813,25.265 118.068,25.100 118.233 C 24.935 118.398,24.800 118.863,24.800 119.267 C 24.800 119.670,24.620 120.000,24.400 120.000 C 24.180 120.000,24.000 120.349,24.000 120.776 C 24.000 121.203,23.820 121.664,23.600 121.800 C 23.380 121.936,23.200 122.487,23.200 123.024 C 23.200 123.561,23.020 124.000,22.800 124.000 C 22.580 124.000,22.400 124.360,22.400 124.800 C 22.400 125.240,22.220 125.600,22.000 125.600 C 21.780 125.600,21.600 125.960,21.600 126.400 C 21.600 126.840,21.420 127.200,21.200 127.200 C 20.980 127.200,20.800 127.635,20.800 128.167 C 20.800 128.698,20.631 129.193,20.425 129.267 C 20.218 129.340,19.980 129.850,19.896 130.400 C 19.812 130.950,19.441 132.097,19.072 132.949 C 18.702 133.801,18.400 134.746,18.400 135.049 C 18.400 135.352,18.220 135.600,18.000 135.600 C 17.780 135.600,17.600 136.140,17.600 136.800 C 17.600 137.460,17.420 138.000,17.200 138.000 C 16.980 138.000,16.800 138.540,16.800 139.200 C 16.800 139.860,16.620 140.400,16.400 140.400 C 16.180 140.400,16.000 140.839,16.000 141.376 C 16.000 141.913,15.820 142.464,15.600 142.600 C 15.380 142.736,15.200 143.377,15.200 144.024 C 15.200 144.671,15.020 145.200,14.800 145.200 C 14.580 145.200,14.400 145.830,14.400 146.600 C 14.400 147.370,14.220 148.000,14.000 148.000 C 13.780 148.000,13.600 148.731,13.600 149.624 C 13.600 150.630,13.444 151.151,13.190 150.994 C 12.965 150.855,12.806 150.889,12.837 151.070 C 13.015 152.092,12.751 154.417,12.477 154.247 C 12.299 154.138,12.110 154.802,12.057 155.724 C 12.003 156.646,11.789 157.460,11.580 157.533 C 11.371 157.607,11.200 158.462,11.200 159.433 C 11.200 160.405,11.061 161.200,10.891 161.200 C 10.721 161.200,10.552 161.932,10.517 162.827 C 10.482 163.722,10.263 164.684,10.030 164.964 C 9.797 165.244,9.690 165.557,9.792 165.658 C 9.893 165.760,9.797 166.824,9.578 168.022 C 9.088 170.698,8.899 172.576,8.559 178.100 C 8.414 180.465,8.139 182.400,7.948 182.400 C 7.756 182.400,7.600 190.314,7.600 200.024 C 7.600 209.952,7.752 217.553,7.949 217.432 C 8.141 217.313,8.415 219.237,8.558 221.708 C 8.956 228.571,9.175 230.304,10.284 235.400 C 10.475 236.280,10.604 237.405,10.571 237.900 C 10.537 238.395,10.665 238.800,10.855 238.800 C 11.045 238.800,11.200 239.595,11.200 240.567 C 11.200 241.538,11.371 242.393,11.580 242.467 C 11.789 242.540,12.003 243.354,12.057 244.276 C 12.110 245.198,12.299 245.862,12.477 245.753 C 12.754 245.581,12.968 247.038,12.908 248.696 C 12.898 248.968,13.050 249.093,13.245 248.972 C 13.440 248.851,13.600 249.483,13.600 250.376 C 13.600 251.269,13.780 252.000,14.000 252.000 C 14.220 252.000,14.400 252.619,14.400 253.376 C 14.400 254.133,14.580 254.864,14.800 255.000 C 15.020 255.136,15.200 255.676,15.200 256.200 C 15.200 256.724,15.380 257.264,15.600 257.400 C 15.820 257.536,16.000 258.087,16.000 258.624 C 16.000 259.161,16.180 259.600,16.400 259.600 C 16.620 259.600,16.800 260.140,16.800 260.800 C 16.800 261.460,16.980 262.000,17.200 262.000 C 17.420 262.000,17.600 262.540,17.600 263.200 C 17.600 263.860,17.780 264.400,18.000 264.400 C 18.220 264.400,18.400 264.839,18.400 265.376 C 18.400 265.913,18.580 266.464,18.800 266.600 C 19.020 266.736,19.200 267.276,19.200 267.800 C 19.200 268.324,19.380 268.864,19.600 269.000 C 19.820 269.136,20.000 269.597,20.000 270.024 C 20.000 270.451,20.180 270.800,20.400 270.800 C 20.620 270.800,20.800 271.160,20.800 271.600 C 20.800 272.040,20.980 272.400,21.200 272.400 C 21.420 272.400,21.600 272.850,21.600 273.400 C 21.600 273.950,21.780 274.400,22.000 274.400 C 22.220 274.400,22.400 274.760,22.400 275.200 C 22.400 275.640,22.580 276.000,22.800 276.000 C 23.020 276.000,23.200 276.540,23.200 277.200 C 23.200 277.860,23.380 278.400,23.600 278.400 C 23.820 278.400,24.000 278.760,24.000 279.200 C 24.000 279.640,24.180 280.000,24.400 280.000 C 24.620 280.000,24.800 280.349,24.800 280.776 C 24.800 281.203,24.983 281.666,25.207 281.804 C 25.430 281.942,25.517 282.210,25.400 282.400 C 25.283 282.590,25.370 282.858,25.593 282.996 C 25.817 283.134,26.000 283.519,26.000 283.852 C 26.000 284.185,26.272 284.729,26.604 285.061 C 26.936 285.393,27.117 285.811,27.006 285.990 C 26.895 286.170,27.071 286.418,27.396 286.543 C 27.731 286.672,27.885 287.035,27.750 287.385 C 27.621 287.723,27.714 288.000,27.957 288.000 C 28.201 288.000,28.400 288.270,28.400 288.600 C 28.400 288.930,28.580 289.200,28.800 289.200 C 29.020 289.200,29.200 289.538,29.200 289.951 C 29.200 290.364,29.468 290.924,29.796 291.196 C 30.123 291.468,30.293 291.850,30.172 292.045 C 30.051 292.240,30.143 292.400,30.376 292.400 C 30.609 292.400,30.800 292.760,30.800 293.200 C 30.800 293.640,30.968 294.000,31.173 294.000 C 31.378 294.000,31.660 294.359,31.799 294.798 C 31.938 295.236,32.267 295.821,32.528 296.098 C 32.790 296.374,33.437 297.455,33.965 298.500 C 34.494 299.545,35.077 300.400,35.263 300.400 C 35.448 300.400,35.600 300.720,35.600 301.112 C 35.600 301.503,35.950 302.076,36.379 302.385 C 36.807 302.693,37.073 303.081,36.971 303.247 C 36.869 303.413,37.193 303.973,37.692 304.492 C 38.192 305.012,38.659 305.698,38.730 306.018 C 38.802 306.338,39.027 306.660,39.230 306.733 C 39.434 306.807,39.600 307.082,39.600 307.345 C 39.600 307.608,39.960 308.083,40.400 308.400 C 40.840 308.717,41.200 309.231,41.200 309.541 C 41.200 309.852,41.517 310.397,41.906 310.753 C 42.294 311.109,42.964 312.075,43.396 312.900 C 43.828 313.725,44.321 314.400,44.491 314.400 C 44.661 314.400,44.800 314.593,44.800 314.829 C 44.800 315.064,45.025 315.489,45.300 315.773 C 46.047 316.543,47.910 318.950,48.065 319.345 C 48.209 319.714,50.458 322.218,53.395 325.283 C 54.388 326.318,55.200 327.361,55.200 327.600 C 55.200 327.839,56.190 329.017,57.400 330.217 C 58.610 331.418,59.600 332.580,59.600 332.800 C 59.600 333.020,59.870 333.200,60.200 333.200 C 60.530 333.200,60.800 333.350,60.800 333.533 C 60.800 333.968,66.032 339.200,66.467 339.200 C 66.650 339.200,66.800 339.470,66.800 339.800 C 66.800 340.130,66.948 340.400,67.128 340.400 C 67.309 340.400,68.302 341.210,69.335 342.200 C 70.369 343.190,71.397 344.000,71.621 344.000 C 71.845 344.000,73.275 345.260,74.800 346.800 C 76.325 348.340,77.688 349.600,77.828 349.600 C 78.383 349.600,80.339 351.530,80.078 351.820 C 79.925 351.989,80.007 352.010,80.259 351.866 C 80.512 351.721,81.259 352.097,81.919 352.702 C 83.948 354.558,84.793 355.200,85.205 355.200 C 85.422 355.200,85.600 355.358,85.600 355.551 C 85.600 355.745,86.105 356.112,86.721 356.367 C 87.338 356.623,88.320 357.275,88.904 357.816 C 89.487 358.357,90.203 358.800,90.494 358.800 C 90.785 358.800,91.283 359.160,91.600 359.600 C 91.917 360.040,92.407 360.400,92.688 360.400 C 92.970 360.400,93.200 360.550,93.200 360.732 C 93.200 360.915,93.695 361.320,94.300 361.632 C 94.905 361.944,95.492 362.320,95.604 362.467 C 95.716 362.615,96.069 362.795,96.388 362.868 C 96.707 362.941,97.325 363.315,97.760 363.700 C 98.195 364.085,98.787 364.400,99.075 364.400 C 99.364 364.400,99.600 364.552,99.600 364.737 C 99.600 364.923,100.455 365.508,101.500 366.037 C 102.545 366.567,103.460 367.135,103.533 367.300 C 103.607 367.465,104.012 367.600,104.433 367.600 C 104.855 367.600,105.200 367.735,105.201 367.900 C 105.201 368.065,106.416 368.830,107.901 369.600 C 109.385 370.370,110.660 371.136,110.734 371.302 C 110.808 371.469,111.034 371.502,111.237 371.377 C 111.440 371.252,111.713 371.430,111.845 371.772 C 111.976 372.115,112.230 372.305,112.410 372.194 C 112.589 372.083,113.007 372.264,113.339 372.596 C 113.671 372.928,114.226 373.200,114.571 373.200 C 114.917 373.200,115.200 373.380,115.200 373.600 C 115.200 373.820,115.549 374.000,115.976 374.000 C 116.403 374.000,116.866 374.183,117.004 374.407 C 117.142 374.630,117.410 374.717,117.600 374.600 C 117.790 374.483,118.058 374.570,118.196 374.793 C 118.334 375.017,118.797 375.200,119.224 375.200 C 119.651 375.200,120.000 375.380,120.000 375.600 C 120.000 375.820,120.439 376.000,120.976 376.000 C 121.513 376.000,122.064 376.180,122.200 376.400 C 122.336 376.620,122.797 376.800,123.224 376.800 C 123.651 376.800,124.000 376.980,124.000 377.200 C 124.000 377.420,124.360 377.600,124.800 377.600 C 125.240 377.600,125.600 377.780,125.600 378.000 C 125.600 378.220,126.050 378.400,126.600 378.400 C 127.150 378.400,127.600 378.580,127.600 378.800 C 127.600 379.020,128.050 379.200,128.600 379.200 C 129.150 379.200,129.600 379.380,129.600 379.600 C 129.600 379.820,130.050 380.000,130.600 380.000 C 131.150 380.000,131.600 380.180,131.600 380.400 C 131.600 380.620,131.960 380.800,132.400 380.800 C 132.840 380.800,133.200 380.980,133.200 381.200 C 133.200 381.420,133.740 381.600,134.400 381.600 C 135.060 381.600,135.600 381.780,135.600 382.000 C 135.600 382.220,136.129 382.400,136.776 382.400 C 137.423 382.400,138.064 382.580,138.200 382.800 C 138.336 383.020,138.887 383.200,139.424 383.200 C 139.961 383.200,140.400 383.380,140.400 383.600 C 140.400 383.820,140.814 384.000,141.320 384.000 C 141.826 384.000,142.456 384.216,142.720 384.480 C 142.984 384.744,143.200 384.832,143.200 384.675 C 143.200 384.518,143.852 384.662,144.649 384.995 C 145.446 385.328,146.515 385.600,147.025 385.600 C 147.535 385.600,148.064 385.780,148.200 386.000 C 148.336 386.220,149.077 386.400,149.847 386.400 C 150.617 386.400,151.159 386.543,151.051 386.717 C 150.884 386.988,151.923 387.203,153.900 387.307 C 154.175 387.322,154.400 387.465,154.400 387.626 C 154.400 387.788,155.165 388.008,156.100 388.116 C 158.541 388.399,160.538 388.829,161.000 389.172 C 161.220 389.335,162.197 389.508,163.171 389.555 C 164.145 389.602,165.093 389.734,165.278 389.848 C 165.462 389.962,166.105 390.133,166.707 390.228 C 167.308 390.323,168.430 390.516,169.200 390.657 C 171.047 390.995,172.885 391.155,178.300 391.446 C 180.775 391.579,182.800 391.849,182.800 392.044 C 182.800 392.246,190.226 392.400,200.000 392.400 C 209.774 392.400,217.200 392.246,217.200 392.044 C 217.200 391.849,219.225 391.582,221.700 391.452 C 228.361 391.103,228.909 391.043,233.400 390.166 C 234.060 390.037,235.545 389.835,236.700 389.716 C 237.855 389.598,238.800 389.343,238.800 389.150 C 238.800 388.958,239.610 388.800,240.600 388.800 C 241.590 388.800,242.400 388.620,242.400 388.400 C 242.400 388.180,243.120 388.000,244.000 388.000 C 244.880 388.000,245.600 387.857,245.600 387.682 C 245.600 387.507,246.270 387.318,247.088 387.263 C 247.906 387.208,248.671 387.033,248.788 386.873 C 248.905 386.713,249.630 386.524,250.400 386.451 C 251.170 386.379,251.890 386.192,252.000 386.037 C 252.110 385.881,253.280 385.510,254.600 385.212 C 255.920 384.915,257.171 384.520,257.380 384.336 C 257.589 384.151,258.174 384.000,258.680 384.000 C 259.186 384.000,259.600 383.820,259.600 383.600 C 259.600 383.380,260.140 383.200,260.800 383.200 C 261.460 383.200,262.000 383.020,262.000 382.800 C 262.000 382.580,262.439 382.400,262.976 382.400 C 263.513 382.400,264.064 382.220,264.200 382.000 C 264.336 381.780,264.977 381.600,265.624 381.600 C 266.271 381.600,266.800 381.420,266.800 381.200 C 266.800 380.980,267.160 380.800,267.600 380.800 C 268.040 380.800,268.400 380.659,268.400 380.487 C 268.400 380.315,268.895 380.134,269.500 380.084 C 270.105 380.034,270.660 379.815,270.733 379.597 C 270.807 379.378,271.302 379.200,271.833 379.200 C 272.365 379.200,272.800 379.020,272.800 378.800 C 272.800 378.580,273.160 378.400,273.600 378.400 C 274.040 378.400,274.400 378.220,274.400 378.000 C 274.400 377.780,274.839 377.600,275.376 377.600 C 275.913 377.600,276.464 377.420,276.600 377.200 C 276.736 376.980,277.197 376.800,277.624 376.800 C 278.051 376.800,278.400 376.620,278.400 376.400 C 278.400 376.180,278.760 376.000,279.200 376.000 C 279.640 376.000,280.000 375.820,280.000 375.600 C 280.000 375.380,280.349 375.200,280.776 375.200 C 281.203 375.200,281.666 375.017,281.804 374.793 C 281.942 374.570,282.210 374.483,282.400 374.600 C 282.590 374.717,282.858 374.630,282.996 374.407 C 283.134 374.183,283.519 374.000,283.852 374.000 C 284.185 374.000,284.729 373.728,285.061 373.396 C 285.393 373.064,285.858 372.912,286.094 373.058 C 286.349 373.215,286.407 373.136,286.238 372.862 C 285.964 372.418,286.440 372.232,287.500 372.370 C 287.775 372.406,288.000 372.291,288.000 372.115 C 288.000 371.939,288.585 371.543,289.300 371.235 C 290.015 370.927,291.078 370.343,291.662 369.937 C 292.246 369.532,293.011 369.200,293.362 369.200 C 293.713 369.200,294.000 369.032,294.000 368.827 C 294.000 368.622,294.359 368.340,294.798 368.201 C 295.236 368.062,295.827 367.734,296.110 367.474 C 296.833 366.808,298.866 365.593,299.700 365.329 C 300.085 365.207,300.400 364.948,300.400 364.753 C 300.400 364.559,300.760 364.400,301.200 364.400 C 301.640 364.400,302.000 364.220,302.000 364.000 C 302.000 363.780,302.270 363.600,302.600 363.600 C 302.930 363.600,303.200 363.420,303.200 363.200 C 303.200 362.980,303.470 362.800,303.800 362.800 C 304.130 362.800,304.400 362.642,304.400 362.449 C 304.400 362.255,304.940 361.873,305.600 361.600 C 306.260 361.327,306.800 360.945,306.800 360.751 C 306.800 360.558,307.030 360.400,307.312 360.400 C 307.593 360.400,308.083 360.040,308.400 359.600 C 308.717 359.160,309.173 358.800,309.413 358.800 C 309.653 358.800,310.198 358.485,310.625 358.100 C 311.051 357.715,312.075 357.044,312.900 356.609 C 313.725 356.174,314.400 355.679,314.400 355.509 C 314.400 355.339,314.625 355.195,314.900 355.189 C 315.175 355.183,316.292 354.385,317.381 353.416 C 318.471 352.446,319.506 351.742,319.681 351.850 C 319.857 351.959,320.000 351.756,320.000 351.400 C 320.000 351.044,320.147 350.844,320.327 350.955 C 320.507 351.066,320.907 350.807,321.215 350.379 C 321.524 349.950,321.924 349.600,322.103 349.600 C 322.283 349.600,323.496 348.520,324.800 347.200 C 326.104 345.880,327.353 344.800,327.576 344.800 C 327.799 344.800,329.004 343.810,330.253 342.600 C 331.502 341.390,332.676 340.400,332.862 340.400 C 333.048 340.400,333.200 340.130,333.200 339.800 C 333.200 339.470,333.364 339.200,333.564 339.200 C 334.268 339.200,344.000 329.026,344.000 328.290 C 344.000 328.115,345.260 326.725,346.800 325.200 C 348.340 323.675,349.600 322.241,349.600 322.014 C 349.600 321.786,349.750 321.600,349.932 321.600 C 350.115 321.600,350.502 321.156,350.793 320.614 C 351.083 320.071,351.501 319.739,351.722 319.875 C 351.943 320.012,352.006 319.934,351.863 319.702 C 351.636 319.334,352.449 318.223,354.597 315.966 C 354.929 315.618,355.200 315.123,355.200 314.866 C 355.200 314.610,355.335 314.396,355.500 314.392 C 355.665 314.388,356.332 313.488,356.983 312.392 C 357.633 311.296,358.308 310.400,358.483 310.400 C 358.657 310.400,358.800 310.080,358.800 309.688 C 358.800 309.297,359.160 308.717,359.600 308.400 C 360.040 308.083,360.400 307.593,360.400 307.312 C 360.400 307.030,360.550 306.800,360.732 306.800 C 360.915 306.800,361.320 306.305,361.632 305.700 C 361.945 305.095,362.427 304.360,362.704 304.068 C 362.981 303.775,363.125 303.403,363.025 303.241 C 362.925 303.078,363.193 302.693,363.621 302.385 C 364.050 302.076,364.400 301.518,364.400 301.145 C 364.400 300.772,364.535 300.407,364.700 300.333 C 365.076 300.166,366.375 298.036,366.671 297.100 C 366.793 296.715,367.052 296.400,367.247 296.400 C 367.441 296.400,367.600 296.106,367.600 295.747 C 367.600 295.388,367.915 294.803,368.300 294.447 C 368.685 294.091,369.056 293.543,369.124 293.228 C 369.192 292.914,369.597 292.166,370.024 291.566 C 370.451 290.967,370.800 290.189,370.800 289.838 C 370.800 289.487,370.980 289.200,371.200 289.200 C 371.420 289.200,371.600 288.930,371.600 288.600 C 371.600 288.270,371.791 288.000,372.024 288.000 C 372.257 288.000,372.345 287.835,372.220 287.632 C 372.095 287.430,372.264 286.993,372.596 286.661 C 372.928 286.329,373.200 285.774,373.200 285.429 C 373.200 285.083,373.380 284.800,373.600 284.800 C 373.820 284.800,374.000 284.451,374.000 284.024 C 374.000 283.597,374.183 283.134,374.407 282.996 C 374.630 282.858,374.717 282.590,374.600 282.400 C 374.483 282.210,374.570 281.942,374.793 281.804 C 375.017 281.666,375.200 281.203,375.200 280.776 C 375.200 280.349,375.380 280.000,375.600 280.000 C 375.820 280.000,376.000 279.640,376.000 279.200 C 376.000 278.760,376.180 278.400,376.400 278.400 C 376.620 278.400,376.800 277.860,376.800 277.200 C 376.800 276.540,376.980 276.000,377.200 276.000 C 377.420 276.000,377.600 275.640,377.600 275.200 C 377.600 274.760,377.780 274.400,378.000 274.400 C 378.220 274.400,378.400 274.040,378.400 273.600 C 378.400 273.160,378.580 272.800,378.800 272.800 C 379.020 272.800,379.200 272.350,379.200 271.800 C 379.200 271.250,379.380 270.800,379.600 270.800 C 379.820 270.800,380.000 270.451,380.000 270.024 C 380.000 269.597,380.180 269.136,380.400 269.000 C 380.620 268.864,380.800 268.313,380.800 267.776 C 380.800 267.239,380.980 266.800,381.200 266.800 C 381.420 266.800,381.600 266.348,381.600 265.795 C 381.600 265.242,381.768 264.477,381.973 264.095 C 382.179 263.713,382.578 262.545,382.861 261.500 C 383.143 260.455,383.515 259.600,383.687 259.600 C 383.859 259.600,384.000 259.161,384.000 258.624 C 384.000 258.087,384.146 257.557,384.324 257.447 C 384.502 257.337,384.896 256.056,385.200 254.600 C 385.504 253.144,385.898 251.863,386.076 251.753 C 386.254 251.643,386.400 250.923,386.400 250.153 C 386.400 249.299,386.560 248.852,386.810 249.006 C 387.035 249.145,387.194 249.111,387.163 248.930 C 386.958 247.754,387.261 245.590,387.600 245.800 C 387.844 245.951,388.000 245.337,388.000 244.224 C 388.000 243.221,388.180 242.400,388.400 242.400 C 388.620 242.400,388.779 242.265,388.753 242.100 C 388.582 241.021,388.857 238.388,389.123 238.553 C 389.301 238.662,389.490 238.011,389.544 237.105 C 389.597 236.199,389.719 235.331,389.815 235.175 C 389.911 235.020,390.089 234.197,390.210 233.347 C 390.332 232.496,390.546 231.260,390.686 230.600 C 391.006 229.094,391.155 227.364,391.452 221.700 C 391.582 219.225,391.849 217.200,392.044 217.200 C 392.515 217.200,392.512 183.078,392.040 182.580 C 391.843 182.371,391.572 180.310,391.438 178.000 C 391.131 172.682,390.977 170.947,390.657 169.200 C 390.516 168.430,390.323 167.308,390.228 166.707 C 390.133 166.105,389.970 165.475,389.865 165.306 C 389.761 165.137,389.627 164.189,389.567 163.199 C 389.508 162.210,389.328 161.220,389.168 161.000 C 389.007 160.780,388.818 159.970,388.747 159.200 C 388.676 158.430,388.488 157.705,388.330 157.590 C 388.172 157.474,387.999 156.630,387.945 155.714 C 387.891 154.797,387.701 154.138,387.523 154.247 C 387.249 154.417,386.985 152.092,387.163 151.070 C 387.194 150.889,387.035 150.855,386.810 150.994 C 386.560 151.148,386.400 150.701,386.400 149.847 C 386.400 149.077,386.220 148.336,386.000 148.200 C 385.780 148.064,385.600 147.571,385.600 147.105 C 385.600 146.204,384.935 143.861,384.351 142.705 C 384.158 142.323,384.000 141.648,384.000 141.205 C 384.000 140.762,383.820 140.400,383.600 140.400 C 383.380 140.400,383.200 139.986,383.200 139.480 C 383.200 138.974,383.021 138.381,382.802 138.162 C 382.584 137.944,382.364 137.278,382.315 136.682 C 382.266 136.087,382.085 135.600,381.913 135.600 C 381.741 135.600,381.600 135.060,381.600 134.400 C 381.600 133.740,381.420 133.200,381.200 133.200 C 380.980 133.200,380.800 132.840,380.800 132.400 C 380.800 131.960,380.659 131.600,380.487 131.600 C 380.315 131.600,380.134 131.105,380.084 130.500 C 380.034 129.895,379.815 129.340,379.597 129.267 C 379.378 129.193,379.200 128.698,379.200 128.167 C 379.200 127.635,379.020 127.200,378.800 127.200 C 378.580 127.200,378.400 126.840,378.400 126.400 C 378.400 125.960,378.220 125.600,378.000 125.600 C 377.780 125.600,377.600 125.060,377.600 124.400 C 377.600 123.740,377.465 123.199,377.300 123.197 C 376.941 123.193,376.000 121.256,376.000 120.520 C 376.000 120.234,375.820 120.000,375.600 120.000 C 375.380 120.000,375.200 119.651,375.200 119.224 C 375.200 118.797,375.017 118.334,374.793 118.196 C 374.570 118.058,374.483 117.790,374.600 117.600 C 374.717 117.410,374.630 117.142,374.407 117.004 C 374.183 116.866,374.000 116.403,374.000 115.976 C 374.000 115.549,373.820 115.200,373.600 115.200 C 373.380 115.200,373.200 114.840,373.200 114.400 C 373.200 113.960,373.020 113.600,372.800 113.600 C 372.580 113.600,372.400 113.240,372.400 112.800 C 372.400 112.360,372.264 112.000,372.098 112.000 C 371.931 112.000,371.543 111.415,371.235 110.700 C 370.927 109.985,370.343 108.922,369.937 108.338 C 369.532 107.754,369.200 107.055,369.200 106.785 C 369.200 106.515,368.812 105.958,368.339 105.547 C 367.830 105.105,367.691 104.800,368.000 104.800 C 368.309 104.800,368.170 104.495,367.661 104.053 C 367.188 103.642,366.800 103.027,366.800 102.686 C 366.800 102.346,366.665 102.007,366.500 101.933 C 366.335 101.860,365.767 100.945,365.237 99.900 C 364.708 98.855,364.123 98.000,363.937 98.000 C 363.752 98.000,363.600 97.730,363.600 97.400 C 363.600 97.070,363.420 96.800,363.200 96.800 C 362.980 96.800,362.800 96.530,362.800 96.200 C 362.800 95.870,362.642 95.600,362.449 95.600 C 362.255 95.600,361.873 95.060,361.600 94.400 C 361.327 93.740,360.945 93.200,360.751 93.200 C 360.558 93.200,360.400 92.970,360.400 92.688 C 360.400 92.407,360.040 91.917,359.600 91.600 C 359.160 91.283,358.800 90.785,358.800 90.494 C 358.800 90.202,358.347 89.510,357.792 88.956 C 357.238 88.402,356.889 87.780,357.016 87.574 C 357.143 87.368,357.027 87.200,356.757 87.200 C 356.487 87.200,356.386 87.081,356.531 86.936 C 356.676 86.791,356.436 86.420,355.997 86.113 C 355.559 85.806,355.200 85.387,355.200 85.182 C 355.200 84.782,354.351 83.670,352.900 82.168 C 352.405 81.656,352.000 80.958,352.000 80.618 C 352.000 80.278,351.865 80.045,351.700 80.100 C 351.535 80.155,351.364 80.056,351.320 79.879 C 351.276 79.702,350.691 79.045,350.020 78.418 C 349.349 77.792,348.800 77.135,348.800 76.960 C 348.800 76.784,347.900 75.796,346.800 74.763 C 345.700 73.730,344.800 72.681,344.800 72.432 C 344.800 72.183,344.035 71.199,343.100 70.245 C 342.165 69.291,340.731 67.766,339.912 66.855 C 339.094 65.945,338.209 65.200,337.946 65.200 C 337.682 65.200,337.562 65.105,337.678 64.988 C 337.938 64.729,334.081 60.800,333.567 60.800 C 333.365 60.800,333.200 60.500,333.200 60.133 C 333.200 59.767,333.102 59.565,332.981 59.686 C 332.861 59.806,331.677 58.846,330.351 57.552 C 329.025 56.258,327.766 55.200,327.554 55.200 C 327.342 55.200,326.299 54.345,325.236 53.300 C 322.431 50.543,319.605 48.001,319.463 48.108 C 319.336 48.203,316.691 46.190,315.773 45.300 C 315.489 45.025,315.107 44.800,314.924 44.800 C 314.742 44.800,314.137 44.395,313.581 43.900 C 313.025 43.405,312.319 42.944,312.011 42.875 C 311.703 42.806,311.148 42.401,310.778 41.975 C 310.409 41.549,309.852 41.200,309.541 41.200 C 309.231 41.200,308.717 40.840,308.400 40.400 C 308.083 39.960,307.608 39.600,307.345 39.600 C 307.082 39.600,306.807 39.434,306.733 39.230 C 306.660 39.027,306.343 38.802,306.028 38.730 C 305.502 38.610,304.592 37.999,303.455 37.000 C 303.205 36.780,302.460 36.331,301.800 36.003 C 301.140 35.674,300.309 35.089,299.953 34.703 C 299.597 34.316,299.012 34.000,298.653 34.000 C 298.294 34.000,298.000 33.820,298.000 33.600 C 298.000 33.380,297.706 33.200,297.347 33.200 C 296.988 33.200,296.358 32.812,295.947 32.339 C 295.505 31.830,295.200 31.691,295.200 32.000 C 295.200 32.309,294.895 32.170,294.453 31.661 C 294.042 31.188,293.412 30.800,293.053 30.800 C 292.694 30.800,292.400 30.609,292.400 30.376 C 292.400 30.143,292.240 30.051,292.045 30.172 C 291.850 30.293,291.499 30.160,291.265 29.878 C 291.030 29.595,290.200 29.114,289.419 28.808 C 288.639 28.501,288.000 28.104,288.000 27.925 C 288.000 27.746,287.584 27.600,287.075 27.600 C 286.567 27.600,285.764 27.240,285.292 26.800 C 284.820 26.360,284.167 26.000,283.840 26.000 C 283.514 26.000,283.134 25.817,282.996 25.593 C 282.858 25.370,282.590 25.283,282.400 25.400 C 282.210 25.517,281.942 25.430,281.804 25.207 C 281.666 24.983,281.203 24.800,280.776 24.800 C 280.349 24.800,280.000 24.620,280.000 24.400 C 280.000 24.180,279.640 24.000,279.200 24.000 C 278.760 24.000,278.400 23.820,278.400 23.600 C 278.400 23.380,277.875 23.200,277.233 23.200 C 276.592 23.200,276.007 23.065,275.933 22.900 C 275.716 22.412,272.387 20.800,271.596 20.800 C 271.195 20.800,270.807 20.622,270.733 20.403 C 270.660 20.185,270.105 19.966,269.500 19.916 C 268.895 19.866,268.400 19.685,268.400 19.513 C 268.400 19.341,268.051 19.200,267.624 19.200 C 267.197 19.200,266.736 19.020,266.600 18.800 C 266.464 18.580,265.913 18.400,265.376 18.400 C 264.839 18.400,264.400 18.220,264.400 18.000 C 264.400 17.780,263.860 17.600,263.200 17.600 C 262.540 17.600,262.000 17.420,262.000 17.200 C 262.000 16.980,261.460 16.800,260.800 16.800 C 260.140 16.800,259.600 16.620,259.600 16.400 C 259.600 16.180,259.161 16.000,258.624 16.000 C 258.087 16.000,257.536 15.820,257.400 15.600 C 257.264 15.380,256.724 15.200,256.200 15.200 C 255.676 15.200,255.136 15.020,255.000 14.800 C 254.864 14.580,254.033 14.400,253.153 14.400 C 252.188 14.400,251.651 14.241,251.800 14.000 C 251.947 13.762,251.471 13.600,250.624 13.600 C 249.841 13.600,249.200 13.440,249.200 13.244 C 249.200 13.049,248.975 12.897,248.700 12.907 C 247.059 12.968,245.580 12.756,245.749 12.483 C 245.916 12.212,244.877 11.997,242.900 11.893 C 242.625 11.878,242.400 11.717,242.400 11.533 C 242.400 11.350,241.590 11.200,240.600 11.200 C 239.610 11.200,238.800 11.020,238.800 10.800 C 238.800 10.580,238.001 10.400,237.024 10.400 C 236.047 10.400,235.134 10.217,234.996 9.993 C 234.858 9.770,234.605 9.673,234.434 9.779 C 234.263 9.885,233.150 9.793,231.961 9.575 C 229.218 9.073,227.291 8.882,221.708 8.558 C 219.237 8.415,217.313 8.141,217.432 7.949 C 217.553 7.752,209.942 7.600,200.000 7.600 C 190.058 7.600,182.447 7.752,182.568 7.949 M149.000 97.544 C 150.320 98.172,152.390 99.277,153.600 99.999 C 155.633 101.212,156.724 101.843,159.245 103.262 C 159.770 103.558,160.290 103.890,160.400 104.001 C 160.510 104.111,161.140 104.465,161.800 104.788 C 162.460 105.111,163.720 105.846,164.600 106.420 C 165.480 106.995,166.470 107.582,166.800 107.724 C 167.130 107.866,168.300 108.534,169.400 109.209 C 170.500 109.883,171.715 110.538,172.100 110.664 C 172.485 110.790,172.800 111.052,172.800 111.247 C 172.800 111.441,172.968 111.600,173.172 111.600 C 173.479 111.600,178.923 114.623,185.500 118.445 C 186.741 119.166,188.369 120.093,190.445 121.262 C 190.970 121.558,191.490 121.890,191.600 122.000 C 191.710 122.110,192.205 122.425,192.700 122.700 C 193.195 122.975,194.005 123.425,194.500 123.700 C 194.995 123.975,195.490 124.290,195.600 124.400 C 195.710 124.510,196.520 124.977,197.400 125.438 C 198.280 125.900,199.720 126.690,200.600 127.195 C 201.480 127.700,203.001 128.563,203.979 129.114 C 204.957 129.664,206.667 130.653,207.779 131.313 C 208.891 131.972,210.385 132.847,211.100 133.256 C 214.004 134.918,215.271 135.640,216.700 136.447 C 217.525 136.913,218.650 137.594,219.200 137.961 C 219.750 138.328,220.740 138.892,221.400 139.214 C 222.060 139.535,222.690 139.889,222.800 139.999 C 222.910 140.110,223.405 140.425,223.900 140.700 C 224.395 140.975,225.205 141.425,225.700 141.700 C 226.195 141.975,226.690 142.290,226.800 142.400 C 226.910 142.510,227.720 142.982,228.600 143.449 C 229.918 144.148,235.339 147.231,242.245 151.208 C 242.930 151.602,243.920 152.167,244.445 152.462 C 244.970 152.758,245.490 153.090,245.600 153.200 C 245.710 153.310,246.520 153.774,247.400 154.230 C 249.473 155.306,250.949 156.149,251.200 156.401 C 251.310 156.511,251.940 156.871,252.600 157.200 C 253.260 157.529,253.890 157.889,254.000 157.999 C 254.110 158.110,254.605 158.425,255.100 158.700 C 255.595 158.975,256.405 159.425,256.900 159.700 C 257.395 159.975,257.890 160.291,258.000 160.403 C 258.110 160.515,259.190 161.130,260.400 161.770 C 261.610 162.409,264.760 164.188,267.400 165.722 C 271.928 168.352,273.379 169.186,275.645 170.462 C 276.170 170.758,276.690 171.090,276.800 171.201 C 276.910 171.311,277.540 171.671,278.200 172.000 C 278.860 172.329,279.490 172.689,279.600 172.799 C 279.710 172.910,280.230 173.242,280.755 173.538 C 283.120 174.870,285.955 176.484,288.500 177.948 C 289.215 178.359,292.230 180.089,295.200 181.793 C 298.170 183.496,301.185 185.229,301.900 185.645 C 303.141 186.366,304.769 187.293,306.845 188.462 C 307.370 188.758,307.890 189.090,308.000 189.200 C 308.110 189.310,308.605 189.625,309.100 189.900 C 309.595 190.175,310.405 190.625,310.900 190.900 C 318.175 194.942,318.175 205.058,310.900 209.100 C 310.405 209.375,309.595 209.825,309.100 210.100 C 308.605 210.375,308.110 210.690,308.000 210.800 C 307.890 210.910,307.370 211.242,306.845 211.538 C 304.769 212.707,303.141 213.634,301.900 214.355 C 301.185 214.771,298.170 216.504,295.200 218.207 C 292.230 219.911,289.215 221.641,288.500 222.052 C 285.955 223.516,283.120 225.130,280.755 226.462 C 280.230 226.758,279.710 227.090,279.600 227.201 C 279.490 227.311,278.860 227.671,278.200 228.000 C 277.540 228.329,276.910 228.689,276.800 228.799 C 276.690 228.910,276.170 229.242,275.645 229.538 C 273.379 230.814,271.928 231.648,267.400 234.278 C 264.760 235.812,261.610 237.591,260.400 238.230 C 259.190 238.870,258.110 239.485,258.000 239.597 C 257.890 239.709,257.395 240.025,256.900 240.300 C 256.405 240.575,255.595 241.025,255.100 241.300 C 254.605 241.575,254.110 241.890,254.000 242.000 C 253.890 242.110,253.080 242.574,252.200 243.030 C 250.127 244.106,248.651 244.949,248.400 245.201 C 248.290 245.311,247.660 245.671,247.000 246.000 C 246.340 246.329,245.710 246.689,245.600 246.799 C 245.490 246.910,244.970 247.242,244.445 247.538 C 243.920 247.833,242.930 248.398,242.245 248.792 C 235.339 252.769,229.918 255.852,228.600 256.551 C 227.720 257.018,226.910 257.490,226.800 257.600 C 226.690 257.710,226.195 258.025,225.700 258.300 C 225.205 258.575,224.395 259.025,223.900 259.300 C 223.405 259.575,222.910 259.890,222.800 260.001 C 222.690 260.111,222.060 260.465,221.400 260.786 C 220.740 261.108,219.750 261.672,219.200 262.039 C 218.650 262.406,217.525 263.087,216.700 263.553 C 214.891 264.574,212.856 265.737,211.100 266.751 C 210.385 267.164,208.630 268.176,207.200 269.000 C 205.770 269.824,204.015 270.836,203.300 271.249 C 199.887 273.221,198.884 273.784,197.400 274.562 C 196.520 275.023,195.710 275.490,195.600 275.600 C 195.413 275.787,194.502 276.322,192.600 277.362 C 192.160 277.603,191.710 277.890,191.600 278.000 C 191.490 278.110,190.970 278.442,190.445 278.738 C 188.369 279.907,186.741 280.834,185.500 281.555 C 178.923 285.377,173.479 288.400,173.172 288.400 C 172.968 288.400,172.800 288.559,172.800 288.753 C 172.800 288.948,172.485 289.210,172.100 289.336 C 171.715 289.462,170.590 290.048,169.600 290.639 C 167.939 291.630,166.886 292.237,164.355 293.662 C 163.830 293.958,163.310 294.290,163.200 294.401 C 163.090 294.511,162.460 294.871,161.800 295.200 C 161.140 295.529,160.510 295.889,160.400 295.999 C 160.290 296.110,159.770 296.442,159.245 296.738 C 158.720 297.033,157.640 297.652,156.845 298.113 C 147.644 303.444,146.586 303.855,143.006 303.485 C 139.000 303.072,135.938 300.526,134.506 296.418 C 133.784 294.346,133.784 105.654,134.506 103.582 C 135.015 102.123,136.211 100.106,136.986 99.400 C 139.457 97.149,141.212 96.443,144.400 96.418 C 146.019 96.405,147.234 96.702,149.000 97.544 " stroke="none" fill="#3cc484" fill-rule="evenodd"></path><path id="path2" d="" stroke="none" fill="#7cd2ac" fill-rule="evenodd"></path><path id="path3" d="M140.200 97.663 C 138.245 98.674,136.518 100.238,135.764 101.680 C 134.800 103.526,135.142 103.377,136.500 101.360 C 138.431 98.492,141.324 97.083,144.881 97.277 C 146.356 97.358,147.346 97.286,147.081 97.118 C 146.080 96.482,141.834 96.818,140.200 97.663 M149.600 98.590 C 149.600 98.694,150.185 99.065,150.900 99.414 L 152.200 100.048 151.200 99.233 C 150.237 98.448,149.600 98.192,149.600 98.590 M152.400 100.190 C 152.400 100.294,152.985 100.665,153.700 101.014 L 155.000 101.648 154.000 100.833 C 153.037 100.048,152.400 99.792,152.400 100.190 M155.200 101.779 C 155.200 101.889,155.740 102.259,156.400 102.600 C 157.060 102.941,157.600 103.131,157.600 103.021 C 157.600 102.911,157.060 102.541,156.400 102.200 C 155.740 101.859,155.200 101.669,155.200 101.779 M158.000 103.379 C 158.000 103.489,158.540 103.859,159.200 104.200 C 159.860 104.541,160.400 104.731,160.400 104.621 C 160.400 104.511,159.860 104.141,159.200 103.800 C 158.540 103.459,158.000 103.269,158.000 103.379 M134.652 104.900 C 134.317 106.150,134.392 294.439,134.728 295.285 C 134.878 295.662,135.000 252.777,135.000 199.985 C 135.000 147.193,134.976 104.000,134.947 104.000 C 134.917 104.000,134.785 104.405,134.652 104.900 M161.600 105.567 C 162.563 106.352,163.200 106.608,163.200 106.210 C 163.200 106.106,162.615 105.735,161.900 105.386 L 160.600 104.752 161.600 105.567 M164.400 107.167 C 165.363 107.952,166.000 108.208,166.000 107.810 C 166.000 107.706,165.415 107.335,164.700 106.986 L 163.400 106.352 164.400 107.167 M167.200 108.764 C 167.750 109.214,168.380 109.583,168.600 109.585 C 169.028 109.588,168.305 109.034,167.000 108.360 C 166.469 108.085,166.536 108.221,167.200 108.764 M169.400 109.902 C 169.620 110.138,172.680 111.988,176.200 114.013 C 183.898 118.441,183.503 118.228,183.000 117.689 C 182.780 117.453,180.170 115.875,177.200 114.182 C 174.230 112.489,171.170 110.737,170.400 110.288 C 169.630 109.839,169.180 109.665,169.400 109.902 M183.600 118.190 C 183.600 118.294,184.185 118.665,184.900 119.014 L 186.200 119.648 185.200 118.833 C 184.237 118.048,183.600 117.792,183.600 118.190 M187.200 120.367 C 188.163 121.152,188.800 121.408,188.800 121.010 C 188.800 120.906,188.215 120.535,187.500 120.186 L 186.200 119.552 187.200 120.367 M190.000 121.967 C 190.963 122.752,191.600 123.008,191.600 122.610 C 191.600 122.506,191.015 122.135,190.300 121.786 L 189.000 121.152 190.000 121.967 M192.800 123.567 C 193.763 124.352,194.400 124.608,194.400 124.210 C 194.400 124.106,193.815 123.735,193.100 123.386 L 191.800 122.752 192.800 123.567 M195.600 125.167 C 196.563 125.952,197.200 126.208,197.200 125.810 C 197.200 125.706,196.615 125.335,195.900 124.986 L 194.600 124.352 195.600 125.167 M197.800 126.304 C 198.020 126.542,200.000 127.763,202.200 129.018 C 204.400 130.273,206.830 131.666,207.600 132.114 C 208.370 132.562,208.820 132.733,208.600 132.496 C 208.380 132.258,206.400 131.037,204.200 129.782 C 202.000 128.527,199.570 127.134,198.800 126.686 C 198.030 126.238,197.580 126.067,197.800 126.304 M209.811 133.338 C 211.410 134.428,214.400 136.069,214.400 135.857 C 214.400 135.610,209.703 132.800,209.290 132.800 C 209.142 132.800,209.377 133.042,209.811 133.338 M214.800 136.190 C 214.800 136.294,215.385 136.665,216.100 137.014 L 217.400 137.648 216.400 136.833 C 215.437 136.048,214.800 135.792,214.800 136.190 M218.400 138.367 C 219.363 139.152,220.000 139.408,220.000 139.010 C 220.000 138.906,219.415 138.535,218.700 138.186 L 217.400 137.552 218.400 138.367 M221.200 139.967 C 222.163 140.752,222.800 141.008,222.800 140.610 C 222.800 140.506,222.215 140.135,221.500 139.786 L 220.200 139.152 221.200 139.967 M224.000 141.564 C 224.550 142.014,225.180 142.383,225.400 142.385 C 225.828 142.388,225.105 141.834,223.800 141.160 C 223.269 140.885,223.336 141.021,224.000 141.564 M226.800 143.164 C 227.350 143.614,227.980 143.983,228.200 143.985 C 228.628 143.988,227.905 143.434,226.600 142.760 C 226.069 142.485,226.136 142.621,226.800 143.164 M229.569 144.691 C 230.103 145.081,231.453 145.899,232.569 146.509 C 233.686 147.120,234.164 147.300,233.631 146.909 C 233.097 146.519,231.747 145.701,230.631 145.091 C 229.514 144.480,229.036 144.300,229.569 144.691 M235.411 148.138 C 237.010 149.228,240.000 150.869,240.000 150.657 C 240.000 150.410,235.303 147.600,234.890 147.600 C 234.742 147.600,234.977 147.842,235.411 148.138 M243.200 152.579 C 243.200 152.689,243.740 153.059,244.400 153.400 C 245.060 153.741,245.600 153.931,245.600 153.821 C 245.600 153.711,245.060 153.341,244.400 153.000 C 243.740 152.659,243.200 152.469,243.200 152.579 M246.800 154.767 C 247.763 155.552,248.400 155.808,248.400 155.410 C 248.400 155.306,247.815 154.935,247.100 154.586 L 245.800 153.952 246.800 154.767 M249.600 156.367 C 250.563 157.152,251.200 157.408,251.200 157.010 C 251.200 156.906,250.615 156.535,249.900 156.186 L 248.600 155.552 249.600 156.367 M252.400 157.967 C 253.363 158.752,254.000 159.008,254.000 158.610 C 254.000 158.506,253.415 158.135,252.700 157.786 L 251.400 157.152 252.400 157.967 M254.600 159.102 C 254.820 159.338,258.510 161.550,262.800 164.017 C 271.950 169.279,271.518 169.044,271.000 168.488 C 270.780 168.251,267.540 166.314,263.800 164.182 C 260.060 162.050,256.370 159.938,255.600 159.489 C 254.830 159.040,254.380 158.865,254.600 159.102 M271.600 168.990 C 271.600 169.094,272.185 169.465,272.900 169.814 L 274.200 170.448 273.200 169.633 C 272.237 168.848,271.600 168.592,271.600 168.990 M275.200 171.167 C 276.163 171.952,276.800 172.208,276.800 171.810 C 276.800 171.706,276.215 171.335,275.500 170.986 L 274.200 170.352 275.200 171.167 M278.000 172.767 C 278.963 173.552,279.600 173.808,279.600 173.410 C 279.600 173.306,279.015 172.935,278.300 172.586 L 277.000 171.952 278.000 172.767 M280.800 174.367 C 281.763 175.152,282.400 175.408,282.400 175.010 C 282.400 174.906,281.815 174.535,281.100 174.186 L 279.800 173.552 280.800 174.367 M283.000 175.513 C 283.220 175.739,284.030 176.278,284.800 176.709 C 285.570 177.140,289.080 179.159,292.600 181.194 C 300.270 185.629,299.906 185.432,299.400 184.887 C 299.180 184.651,296.120 182.802,292.600 180.779 C 283.956 175.812,282.532 175.031,283.000 175.513 M300.000 185.390 C 300.000 185.494,300.585 185.865,301.300 186.214 L 302.600 186.848 301.600 186.033 C 300.637 185.248,300.000 184.992,300.000 185.390 M303.600 187.567 C 304.563 188.352,305.200 188.608,305.200 188.210 C 305.200 188.106,304.615 187.735,303.900 187.386 L 302.600 186.752 303.600 187.567 M306.400 189.167 C 307.363 189.952,308.000 190.208,308.000 189.810 C 308.000 189.706,307.415 189.335,306.700 188.986 L 305.400 188.352 306.400 189.167 M309.000 190.596 C 309.894 191.339,312.428 192.709,311.800 192.110 C 311.580 191.900,310.680 191.324,309.800 190.830 C 308.920 190.335,308.560 190.230,309.000 190.596 M314.678 195.795 C 315.044 196.562,315.414 197.119,315.501 197.032 C 315.684 196.849,314.470 194.400,314.196 194.400 C 314.095 194.400,314.312 195.028,314.678 195.795 M315.714 199.800 C 315.717 200.900,315.795 201.303,315.887 200.695 C 315.979 200.086,315.977 199.186,315.882 198.695 C 315.787 198.203,315.711 198.700,315.714 199.800 M314.678 204.205 C 314.312 204.972,314.095 205.600,314.196 205.600 C 314.470 205.600,315.684 203.151,315.501 202.968 C 315.414 202.881,315.044 203.438,314.678 204.205 M310.100 208.626 C 309.165 209.187,308.400 209.740,308.400 209.855 C 308.400 210.071,311.099 208.538,311.780 207.936 C 312.467 207.328,311.827 207.591,310.100 208.626 M306.400 210.833 L 305.400 211.648 306.700 211.014 C 307.415 210.665,308.000 210.294,308.000 210.190 C 308.000 209.792,307.363 210.048,306.400 210.833 M303.600 212.433 L 302.600 213.248 303.900 212.614 C 304.615 212.265,305.200 211.894,305.200 211.790 C 305.200 211.392,304.563 211.648,303.600 212.433 M301.100 213.829 C 300.495 214.157,300.000 214.510,300.000 214.613 C 300.000 214.999,300.632 214.757,301.600 214.000 C 302.789 213.070,302.611 213.009,301.100 213.829 M291.400 219.443 C 287.000 221.986,283.220 224.261,283.000 224.498 C 282.780 224.734,283.230 224.560,284.000 224.111 C 284.770 223.662,288.460 221.550,292.200 219.418 C 298.259 215.965,300.158 214.779,299.580 214.810 C 299.481 214.815,295.800 216.900,291.400 219.443 M280.800 225.633 L 279.800 226.448 281.100 225.814 C 281.815 225.465,282.400 225.094,282.400 224.990 C 282.400 224.592,281.763 224.848,280.800 225.633 M278.000 227.233 L 277.000 228.048 278.300 227.414 C 279.015 227.065,279.600 226.694,279.600 226.590 C 279.600 226.192,278.963 226.448,278.000 227.233 M275.200 228.833 L 274.200 229.648 275.500 229.014 C 276.215 228.665,276.800 228.294,276.800 228.190 C 276.800 227.792,276.163 228.048,275.200 228.833 M272.700 230.229 C 272.095 230.557,271.600 230.910,271.600 231.013 C 271.600 231.399,272.232 231.157,273.200 230.400 C 274.389 229.470,274.211 229.409,272.700 230.229 M263.000 235.843 C 258.600 238.386,254.820 240.661,254.600 240.898 C 254.380 241.134,254.830 240.960,255.600 240.511 C 256.370 240.062,260.060 237.950,263.800 235.818 C 269.859 232.365,271.758 231.179,271.180 231.210 C 271.081 231.215,267.400 233.300,263.000 235.843 M252.400 242.033 L 251.400 242.848 252.700 242.214 C 253.415 241.865,254.000 241.494,254.000 241.390 C 254.000 240.992,253.363 241.248,252.400 242.033 M249.600 243.633 L 248.600 244.448 249.900 243.814 C 250.615 243.465,251.200 243.094,251.200 242.990 C 251.200 242.592,250.563 242.848,249.600 243.633 M246.800 245.233 L 245.800 246.048 247.100 245.414 C 247.815 245.065,248.400 244.694,248.400 244.590 C 248.400 244.192,247.763 244.448,246.800 245.233 M244.300 246.629 C 242.805 247.440,242.896 247.778,244.400 247.000 C 245.060 246.659,245.600 246.294,245.600 246.190 C 245.600 245.932,245.557 245.947,244.300 246.629 M237.313 250.685 C 235.945 251.496,234.888 252.221,234.963 252.296 C 235.127 252.461,240.000 249.640,240.000 249.381 C 240.000 249.098,239.946 249.124,237.313 250.685 M231.800 253.852 C 228.814 255.621,227.866 256.509,230.631 254.947 C 232.832 253.704,234.720 252.446,234.400 252.436 C 234.290 252.433,233.120 253.070,231.800 253.852 M226.800 256.836 C 226.136 257.379,226.069 257.515,226.600 257.240 C 227.905 256.566,228.628 256.012,228.200 256.015 C 227.980 256.017,227.350 256.386,226.800 256.836 M224.000 258.436 C 223.336 258.979,223.269 259.115,223.800 258.840 C 225.105 258.166,225.828 257.612,225.400 257.615 C 225.180 257.617,224.550 257.986,224.000 258.436 M221.200 260.033 L 220.200 260.848 221.500 260.214 C 222.215 259.865,222.800 259.494,222.800 259.390 C 222.800 258.992,222.163 259.248,221.200 260.033 M218.400 261.633 L 217.400 262.448 218.700 261.814 C 219.415 261.465,220.000 261.094,220.000 260.990 C 220.000 260.592,219.363 260.848,218.400 261.633 M215.900 263.029 C 215.295 263.357,214.800 263.710,214.800 263.813 C 214.800 264.199,215.432 263.957,216.400 263.200 C 217.589 262.270,217.411 262.209,215.900 263.029 M211.713 265.485 C 210.345 266.296,209.288 267.021,209.363 267.096 C 209.527 267.261,214.400 264.440,214.400 264.181 C 214.400 263.898,214.346 263.924,211.713 265.485 M203.400 270.245 C 200.540 271.909,198.020 273.463,197.800 273.699 C 197.580 273.935,198.030 273.762,198.800 273.314 C 199.570 272.866,202.000 271.473,204.200 270.218 C 207.792 268.169,209.298 267.181,208.780 267.210 C 208.681 267.216,206.260 268.582,203.400 270.245 M195.600 274.833 L 194.600 275.648 195.900 275.014 C 196.615 274.665,197.200 274.294,197.200 274.190 C 197.200 273.792,196.563 274.048,195.600 274.833 M192.800 276.433 L 191.800 277.248 193.100 276.614 C 193.815 276.265,194.400 275.894,194.400 275.790 C 194.400 275.392,193.763 275.648,192.800 276.433 M190.000 278.033 L 189.000 278.848 190.300 278.214 C 191.015 277.865,191.600 277.494,191.600 277.390 C 191.600 276.992,190.963 277.248,190.000 278.033 M187.200 279.633 L 186.200 280.448 187.500 279.814 C 188.215 279.465,188.800 279.094,188.800 278.990 C 188.800 278.592,188.163 278.848,187.200 279.633 M184.700 281.029 C 184.095 281.357,183.600 281.710,183.600 281.813 C 183.600 282.199,184.232 281.957,185.200 281.200 C 186.389 280.270,186.211 280.209,184.700 281.029 M176.400 285.847 C 172.770 287.948,169.620 289.861,169.400 290.098 C 169.180 290.334,169.630 290.161,170.400 289.712 C 171.170 289.263,174.230 287.511,177.200 285.818 C 182.006 283.079,183.744 281.973,183.180 282.013 C 183.081 282.020,180.030 283.745,176.400 285.847 M167.200 291.236 C 166.536 291.779,166.469 291.915,167.000 291.640 C 168.305 290.966,169.028 290.412,168.600 290.415 C 168.380 290.417,167.750 290.786,167.200 291.236 M164.400 292.833 L 163.400 293.648 164.700 293.014 C 165.415 292.665,166.000 292.294,166.000 292.190 C 166.000 291.792,165.363 292.048,164.400 292.833 M161.600 294.433 L 160.600 295.248 161.900 294.614 C 162.615 294.265,163.200 293.894,163.200 293.790 C 163.200 293.392,162.563 293.648,161.600 294.433 M158.800 296.033 L 157.800 296.848 159.100 296.214 C 159.815 295.865,160.400 295.494,160.400 295.390 C 160.400 294.992,159.763 295.248,158.800 296.033 M156.300 297.429 C 154.805 298.240,154.896 298.578,156.400 297.800 C 157.060 297.459,157.600 297.094,157.600 296.990 C 157.600 296.732,157.557 296.747,156.300 297.429 M136.333 299.070 C 137.938 302.048,144.660 304.419,147.104 302.868 C 147.380 302.692,146.519 302.627,145.190 302.723 C 142.108 302.946,139.646 302.046,137.516 299.916 C 136.649 299.049,136.117 298.668,136.333 299.070 M153.500 299.029 C 152.895 299.357,152.400 299.710,152.400 299.813 C 152.400 300.199,153.032 299.957,154.000 299.200 C 155.189 298.270,155.011 298.209,153.500 299.029 M150.700 300.629 C 150.095 300.957,149.600 301.310,149.600 301.413 C 149.600 301.799,150.232 301.557,151.200 300.800 C 152.389 299.870,152.211 299.809,150.700 300.629 " stroke="none" fill="#91d9bc" fill-rule="evenodd"></path><path id="path4" d="M143.100 96.689 C 143.815 96.778,144.985 96.778,145.700 96.689 C 146.415 96.601,145.830 96.528,144.400 96.528 C 142.970 96.528,142.385 96.601,143.100 96.689 M138.894 97.880 C 137.977 98.475,137.310 99.044,137.411 99.145 C 137.512 99.246,137.911 99.052,138.298 98.714 C 138.684 98.376,139.540 97.815,140.200 97.466 C 140.860 97.117,141.211 96.825,140.980 96.816 C 140.749 96.807,139.810 97.286,138.894 97.880 M149.200 97.742 C 149.200 97.846,150.415 98.606,151.900 99.432 C 153.385 100.257,155.050 101.194,155.600 101.514 L 156.600 102.095 155.696 101.347 C 154.654 100.486,149.200 97.459,149.200 97.742 M156.800 102.190 C 156.800 102.294,157.385 102.665,158.100 103.014 L 159.400 103.648 158.400 102.833 C 157.437 102.048,156.800 101.792,156.800 102.190 M134.243 104.233 C 133.892 105.146,133.955 295.310,134.306 295.862 C 134.468 296.116,134.600 252.961,134.600 199.962 C 134.600 146.963,134.574 103.600,134.543 103.600 C 134.511 103.600,134.376 103.885,134.243 104.233 M162.400 105.390 C 162.400 105.494,162.985 105.865,163.700 106.214 L 165.000 106.848 164.000 106.033 C 163.037 105.248,162.400 104.992,162.400 105.390 M176.400 113.350 C 176.400 113.468,177.705 114.316,179.300 115.235 C 180.895 116.154,182.785 117.257,183.500 117.686 C 184.215 118.114,184.800 118.369,184.800 118.250 C 184.800 118.132,183.495 117.284,181.900 116.365 C 180.305 115.446,178.415 114.343,177.700 113.914 C 176.985 113.486,176.400 113.231,176.400 113.350 M185.600 118.820 C 186.987 119.761,187.778 120.035,186.800 119.236 C 186.250 118.786,185.620 118.417,185.400 118.415 C 185.180 118.413,185.270 118.596,185.600 118.820 M188.000 120.190 C 188.000 120.294,188.585 120.665,189.300 121.014 L 190.600 121.648 189.600 120.833 C 188.637 120.048,188.000 119.792,188.000 120.190 M205.600 130.364 C 206.150 130.814,206.780 131.183,207.000 131.185 C 207.428 131.188,206.705 130.634,205.400 129.960 C 204.869 129.685,204.936 129.821,205.600 130.364 M208.200 131.807 C 208.640 132.166,209.360 132.635,209.800 132.851 L 210.600 133.244 209.800 132.593 C 209.360 132.234,208.640 131.765,208.200 131.549 L 207.400 131.156 208.200 131.807 M211.200 133.620 C 212.587 134.561,213.378 134.835,212.400 134.036 C 211.850 133.586,211.220 133.217,211.000 133.215 C 210.780 133.213,210.870 133.396,211.200 133.620 M214.000 135.220 C 215.387 136.161,216.178 136.435,215.200 135.636 C 214.650 135.186,214.020 134.817,213.800 134.815 C 213.580 134.813,213.670 134.996,214.000 135.220 M216.800 136.820 C 218.187 137.761,218.978 138.035,218.000 137.236 C 217.450 136.786,216.820 136.417,216.600 136.415 C 216.380 136.413,216.470 136.596,216.800 136.820 M236.769 148.291 C 237.303 148.681,238.653 149.499,239.769 150.109 C 240.886 150.720,241.364 150.900,240.831 150.509 C 240.297 150.119,238.947 149.301,237.831 148.691 C 236.714 148.080,236.236 147.900,236.769 148.291 M242.400 151.620 C 243.787 152.561,244.578 152.835,243.600 152.036 C 243.050 151.586,242.420 151.217,242.200 151.215 C 241.980 151.213,242.070 151.396,242.400 151.620 M248.000 154.820 C 249.387 155.761,250.178 156.035,249.200 155.236 C 248.650 154.786,248.020 154.417,247.800 154.415 C 247.580 154.413,247.670 154.596,248.000 154.820 M261.600 162.543 C 261.600 162.790,266.297 165.600,266.710 165.600 C 267.057 165.600,265.880 164.802,263.500 163.424 C 262.455 162.819,261.600 162.422,261.600 162.543 M267.969 166.291 C 268.503 166.681,269.853 167.499,270.969 168.109 C 272.086 168.720,272.564 168.900,272.031 168.509 C 271.497 168.119,270.147 167.301,269.031 166.691 C 267.914 166.080,267.436 165.900,267.969 166.291 M273.600 169.620 C 274.987 170.561,275.778 170.835,274.800 170.036 C 274.250 169.586,273.620 169.217,273.400 169.215 C 273.180 169.213,273.270 169.396,273.600 169.620 M292.800 180.550 C 292.800 180.668,294.105 181.516,295.700 182.435 C 297.295 183.354,299.185 184.457,299.900 184.886 C 300.615 185.314,301.200 185.569,301.200 185.450 C 301.200 185.332,299.895 184.484,298.300 183.565 C 296.705 182.646,294.815 181.543,294.100 181.114 C 293.385 180.686,292.800 180.431,292.800 180.550 M302.000 186.020 C 303.387 186.961,304.178 187.235,303.200 186.436 C 302.650 185.986,302.020 185.617,301.800 185.615 C 301.580 185.613,301.670 185.796,302.000 186.020 M304.400 187.390 C 304.400 187.494,304.985 187.865,305.700 188.214 L 307.000 188.848 306.000 188.033 C 305.037 187.248,304.400 186.992,304.400 187.390 M305.500 211.829 C 304.895 212.157,304.400 212.510,304.400 212.613 C 304.400 212.999,305.032 212.757,306.000 212.000 C 307.189 211.070,307.011 211.009,305.500 211.829 M302.600 213.600 C 301.940 214.037,301.580 214.392,301.800 214.388 C 302.201 214.382,304.376 212.823,304.000 212.812 C 303.890 212.808,303.260 213.163,302.600 213.600 M297.200 216.651 C 295.110 217.868,293.220 219.059,293.000 219.296 C 292.780 219.534,293.230 219.363,294.000 218.917 C 294.770 218.471,296.705 217.354,298.300 216.435 C 299.895 215.516,301.200 214.683,301.200 214.582 C 301.200 214.314,301.305 214.260,297.200 216.651 M274.200 230.000 C 273.540 230.437,273.180 230.792,273.400 230.788 C 273.801 230.782,275.976 229.223,275.600 229.212 C 275.490 229.208,274.860 229.563,274.200 230.000 M270.200 232.252 C 267.214 234.021,266.266 234.909,269.031 233.347 C 271.232 232.104,273.120 230.846,272.800 230.836 C 272.690 230.833,271.520 231.470,270.200 232.252 M264.125 235.731 C 261.385 237.406,260.852 238.053,263.400 236.609 C 265.957 235.160,267.082 234.392,266.589 234.431 C 266.375 234.447,265.266 235.032,264.125 235.731 M243.000 248.000 C 242.340 248.437,241.980 248.792,242.200 248.788 C 242.601 248.782,244.776 247.223,244.400 247.212 C 244.290 247.208,243.660 247.563,243.000 248.000 M239.000 250.252 C 236.014 252.021,235.066 252.909,237.831 251.347 C 240.032 250.104,241.920 248.846,241.600 248.836 C 241.490 248.833,240.320 249.470,239.000 250.252 M217.400 262.800 C 216.740 263.237,216.380 263.592,216.600 263.588 C 217.001 263.582,219.176 262.023,218.800 262.012 C 218.690 262.008,218.060 262.363,217.400 262.800 M214.600 264.400 C 213.940 264.837,213.580 265.192,213.800 265.188 C 214.201 265.182,216.376 263.623,216.000 263.612 C 215.890 263.608,215.260 263.963,214.600 264.400 M211.800 266.000 C 211.140 266.437,210.780 266.792,211.000 266.788 C 211.401 266.782,213.576 265.223,213.200 265.212 C 213.090 265.208,212.460 265.563,211.800 266.000 M208.296 267.958 C 205.860 269.387,205.319 269.944,207.400 268.880 C 208.945 268.091,210.810 266.818,210.400 266.833 C 210.290 266.837,209.343 267.343,208.296 267.958 M189.100 279.029 C 188.495 279.357,188.000 279.710,188.000 279.813 C 188.000 280.199,188.632 279.957,189.600 279.200 C 190.789 278.270,190.611 278.209,189.100 279.029 M186.200 280.800 C 185.540 281.237,185.180 281.592,185.400 281.588 C 185.801 281.582,187.976 280.023,187.600 280.012 C 187.490 280.008,186.860 280.363,186.200 280.800 M180.800 283.851 C 178.710 285.068,176.820 286.259,176.600 286.496 C 176.380 286.734,176.830 286.563,177.600 286.117 C 178.370 285.671,180.305 284.554,181.900 283.635 C 183.495 282.716,184.800 281.883,184.800 281.782 C 184.800 281.514,184.905 281.460,180.800 283.851 M157.900 297.029 C 157.295 297.357,156.800 297.710,156.800 297.813 C 156.800 298.199,157.432 297.957,158.400 297.200 C 159.589 296.270,159.411 296.209,157.900 297.029 M134.802 297.106 C 134.799 297.787,136.508 300.389,136.962 300.395 C 137.161 300.398,137.039 300.085,136.690 299.699 C 136.341 299.314,135.774 298.459,135.430 297.799 C 135.086 297.140,134.804 296.828,134.802 297.106 M152.889 299.966 C 148.698 302.400,148.083 303.015,151.896 300.960 C 154.527 299.543,156.902 297.998,156.400 298.031 C 156.290 298.038,154.710 298.909,152.889 299.966 M138.046 301.540 C 139.324 302.532,140.827 303.306,141.047 303.086 C 141.145 302.988,140.686 302.684,140.026 302.411 C 139.366 302.138,138.619 301.663,138.364 301.357 C 138.110 301.051,137.720 300.800,137.497 300.800 C 137.274 300.800,137.521 301.133,138.046 301.540 M143.100 303.489 C 143.815 303.578,144.985 303.578,145.700 303.489 C 146.415 303.401,145.830 303.328,144.400 303.328 C 142.970 303.328,142.385 303.401,143.100 303.489 " stroke="none" fill="#61cc9c" fill-rule="evenodd"></path></g></svg>