<svg id="svg" version="1.1" xmlns="http://www.w3.org/2000/svg" xmlns:xlink="http://www.w3.org/1999/xlink" width="400" height="400" viewBox="0, 0, 400,400"><g id="svgg"><path id="path0" d="M123.435 119.613 C 121.290 120.683,120.588 121.388,119.626 123.434 C 118.547 125.730,118.293 273.489,119.364 276.051 C 120.248 278.167,121.432 279.433,123.387 280.352 L 125.191 281.200 200.000 281.200 L 274.809 281.200 276.613 280.352 C 277.606 279.885,278.790 279.030,279.245 278.452 C 281.310 275.828,281.200 280.234,281.200 199.947 L 281.200 125.191 280.352 123.387 C 279.433 121.432,278.167 120.248,276.051 119.364 C 273.581 118.331,125.518 118.573,123.435 119.613 " stroke="none" fill="#fbfbfb" fill-rule="evenodd"></path><path id="path1" d="M178.300 0.275 C 176.375 0.361,174.800 0.604,174.800 0.816 C 174.800 1.027,173.461 1.200,171.824 1.200 C 170.187 1.200,168.736 1.380,168.600 1.600 C 168.464 1.820,167.463 2.000,166.376 2.000 C 165.289 2.000,164.400 2.180,164.400 2.400 C 164.400 2.620,163.399 2.800,162.176 2.800 C 160.796 2.800,160.047 2.952,160.200 3.200 C 160.352 3.446,159.679 3.600,158.447 3.600 C 157.347 3.600,156.336 3.780,156.200 4.000 C 156.064 4.220,155.344 4.400,154.600 4.400 C 153.856 4.400,153.136 4.580,153.000 4.800 C 152.864 5.020,152.043 5.200,151.176 5.200 C 150.309 5.200,149.600 5.380,149.600 5.600 C 149.600 5.820,148.880 6.000,148.000 6.000 C 147.120 6.000,146.400 6.180,146.400 6.400 C 146.400 6.620,145.961 6.800,145.424 6.800 C 144.887 6.800,144.336 6.980,144.200 7.200 C 144.064 7.420,143.333 7.600,142.576 7.600 C 141.819 7.600,141.200 7.780,141.200 8.000 C 141.200 8.220,140.671 8.400,140.024 8.400 C 139.377 8.400,138.730 8.590,138.587 8.821 C 138.444 9.053,138.118 9.172,137.863 9.086 C 137.609 8.999,136.816 9.172,136.102 9.469 C 135.388 9.766,134.668 10.029,134.502 10.052 C 134.336 10.076,133.750 10.267,133.200 10.477 C 132.650 10.687,131.701 10.958,131.092 11.081 C 130.482 11.203,129.886 11.460,129.768 11.652 C 129.650 11.843,129.218 12.000,128.810 12.000 C 128.401 12.000,128.007 12.178,127.933 12.397 C 127.860 12.615,127.305 12.834,126.700 12.884 C 126.095 12.934,125.600 13.115,125.600 13.287 C 125.600 13.459,125.240 13.600,124.800 13.600 C 124.360 13.600,124.000 13.780,124.000 14.000 C 124.000 14.220,123.550 14.400,123.000 14.400 C 122.450 14.400,122.000 14.580,122.000 14.800 C 122.000 15.020,121.651 15.200,121.224 15.200 C 120.797 15.200,120.336 15.380,120.200 15.600 C 120.064 15.820,119.603 16.000,119.176 16.000 C 118.749 16.000,118.400 16.180,118.400 16.400 C 118.400 16.620,118.040 16.800,117.600 16.800 C 117.160 16.800,116.800 16.980,116.800 17.200 C 116.800 17.420,116.361 17.600,115.824 17.600 C 115.287 17.600,114.736 17.780,114.600 18.000 C 114.464 18.220,114.003 18.400,113.576 18.400 C 113.149 18.400,112.800 18.580,112.800 18.800 C 112.800 19.020,112.440 19.200,112.000 19.200 C 111.560 19.200,111.200 19.346,111.200 19.525 C 111.200 19.704,110.570 20.098,109.800 20.400 C 109.030 20.702,108.400 21.096,108.400 21.275 C 108.400 21.454,108.175 21.604,107.900 21.609 C 107.625 21.614,106.950 21.970,106.400 22.400 C 105.850 22.830,105.035 23.186,104.588 23.191 C 104.142 23.196,103.517 23.560,103.200 24.000 C 102.883 24.440,102.399 24.800,102.125 24.800 C 101.356 24.800,98.800 26.105,98.800 26.498 C 98.800 26.690,98.635 26.745,98.432 26.620 C 98.230 26.495,97.820 26.619,97.521 26.896 C 96.557 27.791,94.443 29.200,94.065 29.200 C 93.863 29.200,93.476 29.468,93.204 29.796 C 92.932 30.123,92.583 30.313,92.428 30.217 C 92.273 30.121,91.893 30.393,91.585 30.821 C 91.276 31.250,90.743 31.600,90.400 31.600 C 90.057 31.600,89.517 31.960,89.200 32.400 C 88.883 32.840,88.385 33.200,88.094 33.200 C 87.802 33.200,87.110 33.653,86.556 34.208 C 86.002 34.762,85.352 35.094,85.112 34.946 C 84.851 34.785,84.791 34.862,84.962 35.138 C 85.131 35.412,84.993 35.600,84.624 35.600 C 84.281 35.600,84.000 35.738,84.000 35.906 C 84.000 36.074,83.280 36.656,82.400 37.200 C 81.520 37.744,80.800 38.326,80.800 38.494 C 80.800 38.662,80.532 38.800,80.203 38.800 C 79.875 38.800,79.091 39.340,78.460 40.000 C 77.829 40.660,77.097 41.200,76.833 41.200 C 76.569 41.200,76.464 41.380,76.600 41.600 C 76.736 41.820,76.604 42.000,76.308 42.000 C 76.011 42.000,74.976 42.716,74.009 43.592 C 73.042 44.467,72.182 45.116,72.100 45.033 C 72.017 44.950,71.286 45.545,70.475 46.355 C 69.664 47.165,68.396 48.252,67.659 48.771 C 66.319 49.712,58.654 57.200,59.029 57.200 C 59.139 57.200,58.817 57.626,58.314 58.146 C 57.811 58.667,57.343 59.045,57.274 58.987 C 57.059 58.807,49.764 66.246,48.771 67.659 C 48.252 68.396,47.165 69.664,46.355 70.475 C 45.545 71.286,44.980 72.046,45.099 72.165 C 45.217 72.284,45.019 72.495,44.657 72.633 C 44.296 72.772,44.000 73.126,44.000 73.420 C 44.000 73.714,43.641 74.206,43.203 74.513 C 42.764 74.820,42.524 75.191,42.669 75.336 C 42.814 75.481,42.723 75.600,42.467 75.600 C 42.210 75.600,42.000 75.881,42.000 76.224 C 42.000 76.567,41.820 76.736,41.600 76.600 C 41.380 76.464,41.200 76.569,41.200 76.833 C 41.200 77.097,40.660 77.829,40.000 78.460 C 39.340 79.091,38.800 79.793,38.800 80.020 C 38.800 80.247,38.440 80.820,38.000 81.292 C 37.560 81.764,37.200 82.398,37.200 82.699 C 37.200 83.001,37.020 83.136,36.800 83.000 C 36.580 82.864,36.400 82.994,36.400 83.288 C 36.400 83.583,36.040 84.083,35.600 84.400 C 35.160 84.717,34.800 85.257,34.800 85.600 C 34.800 85.943,34.440 86.483,34.000 86.800 C 33.560 87.117,33.200 87.697,33.200 88.088 C 33.200 88.480,33.050 88.800,32.868 88.800 C 32.685 88.800,32.281 89.295,31.970 89.900 C 31.660 90.505,31.134 91.270,30.803 91.600 C 30.471 91.930,30.141 92.468,30.068 92.796 C 29.995 93.124,29.806 93.484,29.647 93.596 C 29.488 93.708,28.924 94.520,28.394 95.400 C 27.864 96.280,27.197 97.240,26.911 97.532 C 26.626 97.825,26.495 98.230,26.620 98.432 C 26.745 98.635,26.690 98.800,26.498 98.800 C 26.105 98.800,24.800 101.356,24.800 102.125 C 24.800 102.399,24.440 102.883,24.000 103.200 C 23.560 103.517,23.200 104.097,23.200 104.488 C 23.200 104.880,23.020 105.200,22.800 105.200 C 22.580 105.200,22.400 105.472,22.400 105.805 C 22.400 106.392,21.640 107.994,21.168 108.400 C 21.040 108.510,20.681 109.185,20.370 109.900 C 20.059 110.615,19.669 111.200,19.502 111.200 C 19.336 111.200,19.200 111.560,19.200 112.000 C 19.200 112.440,19.020 112.800,18.800 112.800 C 18.580 112.800,18.400 113.065,18.400 113.388 C 18.400 113.711,18.040 114.617,17.600 115.400 C 17.160 116.183,16.800 117.179,16.800 117.612 C 16.800 118.045,16.620 118.400,16.400 118.400 C 16.180 118.400,16.000 118.749,16.000 119.176 C 16.000 119.603,15.820 120.064,15.600 120.200 C 15.380 120.336,15.200 120.807,15.200 121.247 C 15.200 121.687,15.020 121.936,14.800 121.800 C 14.567 121.656,14.400 122.063,14.400 122.776 C 14.400 123.449,14.220 124.000,14.000 124.000 C 13.780 124.000,13.600 124.360,13.600 124.800 C 13.600 125.240,13.459 125.600,13.287 125.600 C 13.115 125.600,12.934 126.095,12.884 126.700 C 12.834 127.305,12.615 127.860,12.397 127.933 C 12.178 128.007,12.000 128.324,12.000 128.639 C 12.000 128.953,11.833 129.523,11.629 129.905 C 11.146 130.811,10.717 132.009,10.532 132.969 C 10.451 133.391,10.186 133.976,9.943 134.269 C 9.701 134.561,9.610 134.800,9.741 134.800 C 9.873 134.800,9.789 135.295,9.555 135.900 C 9.015 137.294,8.762 138.266,8.512 139.900 C 8.402 140.615,8.152 141.200,7.956 141.200 C 7.760 141.200,7.600 141.830,7.600 142.600 C 7.600 143.370,7.420 144.000,7.200 144.000 C 6.980 144.000,6.800 144.540,6.800 145.200 C 6.800 145.860,6.657 146.400,6.482 146.400 C 6.307 146.400,6.118 147.075,6.063 147.899 C 6.007 148.724,5.790 149.570,5.581 149.779 C 5.371 149.989,5.200 150.743,5.200 151.456 C 5.200 152.169,5.020 152.864,4.800 153.000 C 4.580 153.136,4.400 153.856,4.400 154.600 C 4.400 155.344,4.220 156.064,4.000 156.200 C 3.780 156.336,3.600 157.247,3.600 158.224 C 3.600 159.201,3.420 160.000,3.200 160.000 C 2.980 160.000,2.800 161.001,2.800 162.224 C 2.800 163.604,2.648 164.353,2.400 164.200 C 2.149 164.045,2.000 164.929,2.000 166.576 C 2.000 168.059,1.826 169.200,1.600 169.200 C 1.376 169.200,1.200 170.307,1.200 171.720 C 1.200 173.203,0.994 174.446,0.700 174.740 C 0.311 175.129,0.200 180.743,0.200 200.087 C 0.200 219.608,0.307 224.969,0.700 225.100 C 1.036 225.212,1.200 226.176,1.200 228.033 C 1.200 229.611,1.372 230.800,1.600 230.800 C 1.826 230.800,2.000 231.941,2.000 233.424 C 2.000 235.071,2.149 235.955,2.400 235.800 C 2.648 235.647,2.800 236.396,2.800 237.776 C 2.800 238.999,2.980 240.000,3.200 240.000 C 3.420 240.000,3.600 240.799,3.600 241.776 C 3.600 242.753,3.780 243.664,4.000 243.800 C 4.220 243.936,4.400 244.656,4.400 245.400 C 4.400 246.144,4.580 246.864,4.800 247.000 C 5.020 247.136,5.200 247.831,5.200 248.544 C 5.200 249.257,5.371 250.011,5.581 250.221 C 5.790 250.430,6.007 251.276,6.063 252.101 C 6.118 252.925,6.307 253.600,6.482 253.600 C 6.657 253.600,6.800 254.140,6.800 254.800 C 6.800 255.460,6.980 256.000,7.200 256.000 C 7.420 256.000,7.600 256.630,7.600 257.400 C 7.600 258.170,7.760 258.800,7.956 258.800 C 8.152 258.800,8.402 259.385,8.512 260.100 C 8.762 261.734,9.015 262.706,9.555 264.100 C 9.789 264.705,9.873 265.200,9.741 265.200 C 9.610 265.200,9.701 265.439,9.943 265.731 C 10.186 266.024,10.451 266.609,10.532 267.031 C 10.717 267.991,11.146 269.189,11.629 270.095 C 11.833 270.477,12.000 271.047,12.000 271.361 C 12.000 271.676,12.178 271.993,12.397 272.067 C 12.615 272.140,12.834 272.695,12.884 273.300 C 12.934 273.905,13.115 274.400,13.287 274.400 C 13.459 274.400,13.600 274.760,13.600 275.200 C 13.600 275.640,13.780 276.000,14.000 276.000 C 14.220 276.000,14.400 276.551,14.400 277.224 C 14.400 277.937,14.567 278.344,14.800 278.200 C 15.020 278.064,15.200 278.313,15.200 278.753 C 15.200 279.193,15.380 279.664,15.600 279.800 C 15.820 279.936,16.000 280.397,16.000 280.824 C 16.000 281.251,16.180 281.600,16.400 281.600 C 16.620 281.600,16.800 281.960,16.800 282.400 C 16.800 282.840,16.980 283.200,17.200 283.200 C 17.420 283.200,17.600 283.639,17.600 284.176 C 17.600 284.713,17.780 285.264,18.000 285.400 C 18.220 285.536,18.400 285.997,18.400 286.424 C 18.400 286.851,18.535 287.201,18.700 287.201 C 18.865 287.202,19.450 288.192,20.000 289.400 C 20.550 290.608,21.135 291.598,21.300 291.599 C 21.465 291.599,21.604 291.825,21.609 292.100 C 21.614 292.375,21.970 293.050,22.400 293.600 C 22.830 294.150,23.186 294.881,23.191 295.225 C 23.196 295.568,23.560 296.236,24.000 296.708 C 24.440 297.180,24.800 297.749,24.800 297.971 C 24.800 298.534,26.403 301.555,26.848 301.830 C 27.049 301.954,27.109 302.223,26.983 302.428 C 26.856 302.632,26.910 302.800,27.103 302.800 C 27.295 302.800,27.873 303.565,28.386 304.500 C 28.899 305.435,29.590 306.515,29.921 306.900 C 30.253 307.285,30.379 307.600,30.201 307.600 C 30.023 307.600,30.265 307.936,30.739 308.347 C 31.212 308.758,31.600 309.348,31.600 309.659 C 31.600 309.969,31.960 310.483,32.400 310.800 C 32.840 311.117,33.200 311.562,33.200 311.788 C 33.201 312.015,33.647 312.718,34.192 313.352 C 34.737 313.986,35.069 314.689,34.930 314.914 C 34.784 315.149,34.873 315.202,35.138 315.038 C 35.412 314.869,35.600 315.007,35.600 315.376 C 35.600 315.719,35.780 316.000,36.000 316.000 C 36.220 316.000,36.400 316.281,36.400 316.624 C 36.400 316.967,36.580 317.136,36.800 317.000 C 37.020 316.864,37.200 316.999,37.200 317.301 C 37.200 317.602,37.560 318.236,38.000 318.708 C 38.440 319.180,38.800 319.753,38.800 319.980 C 38.800 320.207,39.340 320.909,40.000 321.540 C 40.660 322.171,41.200 322.903,41.200 323.167 C 41.200 323.431,41.380 323.536,41.600 323.400 C 41.820 323.264,42.000 323.396,42.000 323.692 C 42.000 323.989,42.716 325.024,43.592 325.991 C 44.467 326.958,45.116 327.818,45.033 327.900 C 44.950 327.983,45.545 328.714,46.355 329.525 C 47.165 330.336,48.252 331.604,48.771 332.341 C 49.712 333.681,57.200 341.346,57.200 340.971 C 57.200 340.861,57.626 341.183,58.146 341.686 C 58.667 342.189,59.051 342.651,59.000 342.713 C 58.826 342.925,66.281 350.261,67.643 351.218 C 68.389 351.743,69.664 352.835,70.475 353.645 C 71.286 354.455,72.051 355.016,72.175 354.892 C 72.299 354.768,72.400 354.907,72.400 355.200 C 72.400 355.493,72.514 355.619,72.653 355.480 C 72.793 355.341,73.531 355.851,74.293 356.613 C 75.056 357.376,75.820 358.000,75.991 358.000 C 76.161 358.000,77.066 358.720,78.000 359.600 C 78.934 360.480,79.947 361.200,80.249 361.200 C 80.552 361.200,80.800 361.338,80.800 361.506 C 80.800 361.674,81.520 362.256,82.400 362.800 C 83.280 363.344,84.000 363.926,84.000 364.094 C 84.000 364.262,84.281 364.400,84.624 364.400 C 84.993 364.400,85.131 364.588,84.962 364.862 C 84.798 365.127,84.851 365.216,85.086 365.070 C 85.311 364.931,86.014 365.263,86.648 365.808 C 87.282 366.353,88.025 366.799,88.300 366.800 C 88.575 366.800,88.800 366.950,88.800 367.132 C 88.800 367.315,89.295 367.719,89.900 368.030 C 90.505 368.340,91.270 368.869,91.600 369.204 C 91.930 369.539,93.055 370.244,94.100 370.770 C 95.145 371.296,96.000 371.877,96.000 372.063 C 96.000 372.248,96.255 372.400,96.567 372.400 C 96.878 372.400,97.193 372.535,97.267 372.700 C 97.447 373.105,101.389 375.200,101.971 375.200 C 102.225 375.200,102.820 375.560,103.292 376.000 C 103.764 376.440,104.432 376.804,104.775 376.809 C 105.119 376.814,105.850 377.170,106.400 377.600 C 106.950 378.030,107.625 378.386,107.900 378.391 C 108.175 378.396,108.400 378.580,108.400 378.800 C 108.400 379.020,108.745 379.200,109.167 379.200 C 109.588 379.200,109.993 379.335,110.067 379.500 C 110.288 379.999,113.622 381.600,114.438 381.600 C 114.857 381.600,115.200 381.780,115.200 382.000 C 115.200 382.220,115.560 382.400,116.000 382.400 C 116.440 382.400,116.800 382.580,116.800 382.800 C 116.800 383.020,117.065 383.200,117.388 383.200 C 117.711 383.200,118.617 383.560,119.400 384.000 C 120.183 384.440,121.089 384.800,121.412 384.800 C 121.735 384.800,122.000 384.980,122.000 385.200 C 122.000 385.420,122.450 385.600,123.000 385.600 C 123.550 385.600,124.000 385.780,124.000 386.000 C 124.000 386.220,124.360 386.400,124.800 386.400 C 125.240 386.400,125.600 386.542,125.600 386.715 C 125.600 386.888,125.934 387.055,126.342 387.086 C 126.750 387.116,127.875 387.493,128.842 387.923 C 130.869 388.825,133.866 389.892,134.400 389.902 C 134.510 389.904,135.230 390.168,136.000 390.488 C 136.770 390.809,137.609 391.001,137.863 390.914 C 138.118 390.828,138.444 390.947,138.587 391.179 C 138.730 391.410,139.377 391.600,140.024 391.600 C 140.671 391.600,141.200 391.742,141.200 391.915 C 141.200 392.088,141.778 392.274,142.484 392.328 C 143.191 392.382,143.866 392.575,143.984 392.758 C 144.187 393.069,145.181 393.323,148.300 393.863 C 149.015 393.986,149.600 394.248,149.600 394.444 C 149.600 394.640,150.309 394.800,151.176 394.800 C 152.043 394.800,152.864 394.980,153.000 395.200 C 153.136 395.420,153.856 395.600,154.600 395.600 C 155.344 395.600,156.064 395.780,156.200 396.000 C 156.336 396.220,157.347 396.400,158.447 396.400 C 159.679 396.400,160.352 396.554,160.200 396.800 C 160.047 397.048,160.796 397.200,162.176 397.200 C 163.399 397.200,164.400 397.380,164.400 397.600 C 164.400 397.820,165.379 398.000,166.576 398.000 C 167.773 398.000,168.864 398.180,169.000 398.400 C 169.136 398.620,170.461 398.800,171.944 398.800 C 173.567 398.800,174.839 398.999,175.140 399.300 C 175.529 399.689,181.045 399.800,200.000 399.800 C 218.955 399.800,224.471 399.689,224.860 399.300 C 225.161 398.999,226.433 398.800,228.056 398.800 C 229.539 398.800,230.864 398.620,231.000 398.400 C 231.136 398.180,232.227 398.000,233.424 398.000 C 234.621 398.000,235.600 397.820,235.600 397.600 C 235.600 397.380,236.489 397.200,237.576 397.200 C 238.663 397.200,239.664 397.020,239.800 396.800 C 239.936 396.580,240.746 396.400,241.600 396.400 C 242.454 396.400,243.264 396.220,243.400 396.000 C 243.536 395.780,244.447 395.600,245.424 395.600 C 246.401 395.600,247.200 395.420,247.200 395.200 C 247.200 394.980,247.819 394.800,248.576 394.800 C 249.333 394.800,250.052 394.640,250.173 394.444 C 250.294 394.249,251.024 393.979,251.796 393.844 C 252.568 393.710,253.830 393.490,254.600 393.356 C 255.370 393.222,256.000 392.952,256.000 392.756 C 256.000 392.560,256.630 392.400,257.400 392.400 C 258.170 392.400,258.800 392.240,258.800 392.044 C 258.800 391.848,259.385 391.598,260.100 391.488 C 261.734 391.238,262.706 390.985,264.100 390.445 C 264.705 390.211,265.200 390.127,265.200 390.259 C 265.200 390.390,265.439 390.299,265.731 390.057 C 266.024 389.814,266.609 389.549,267.031 389.468 C 267.991 389.283,269.189 388.854,270.095 388.371 C 270.477 388.167,271.047 388.000,271.361 388.000 C 271.676 388.000,271.993 387.822,272.067 387.603 C 272.140 387.385,272.695 387.166,273.300 387.116 C 273.905 387.066,274.400 386.885,274.400 386.713 C 274.400 386.541,274.745 386.400,275.167 386.400 C 275.588 386.400,275.993 386.237,276.067 386.038 C 276.140 385.839,276.650 385.614,277.200 385.538 C 277.750 385.462,278.290 385.310,278.400 385.200 C 278.878 384.722,280.439 384.000,280.995 384.000 C 281.328 384.000,281.600 383.820,281.600 383.600 C 281.600 383.380,281.872 383.200,282.205 383.200 C 282.793 383.200,283.218 383.033,285.095 382.062 C 285.587 381.808,286.272 381.600,286.618 381.600 C 286.964 381.600,287.136 381.420,287.000 381.200 C 286.864 380.980,287.016 380.800,287.339 380.800 C 288.022 380.800,291.338 379.140,291.533 378.700 C 291.607 378.535,292.012 378.400,292.433 378.400 C 292.855 378.400,293.200 378.220,293.200 378.000 C 293.200 377.780,293.560 377.600,294.000 377.600 C 294.440 377.600,294.800 377.420,294.800 377.200 C 294.800 376.980,295.036 376.800,295.325 376.800 C 295.613 376.800,296.204 376.469,296.638 376.065 C 297.072 375.661,297.884 375.215,298.443 375.075 C 299.001 374.935,300.106 374.381,300.897 373.844 C 301.688 373.307,302.440 372.973,302.567 373.101 C 302.695 373.229,302.800 373.152,302.800 372.930 C 302.800 372.707,303.610 372.109,304.600 371.600 C 305.590 371.091,306.400 370.523,306.400 370.337 C 306.400 370.152,306.720 370.000,307.112 370.000 C 307.503 370.000,308.083 369.640,308.400 369.200 C 308.717 368.760,309.173 368.400,309.413 368.400 C 309.653 368.400,310.198 368.085,310.625 367.700 C 311.051 367.315,311.895 366.745,312.500 366.432 C 313.105 366.120,313.600 365.715,313.600 365.532 C 313.600 365.350,313.920 365.200,314.312 365.200 C 314.703 365.200,315.283 364.840,315.600 364.400 C 315.917 363.960,316.417 363.600,316.712 363.600 C 317.006 363.600,317.136 363.420,317.000 363.200 C 316.864 362.980,316.999 362.800,317.301 362.800 C 317.602 362.800,318.236 362.440,318.708 362.000 C 319.180 361.560,319.753 361.200,319.980 361.200 C 320.207 361.200,320.909 360.660,321.540 360.000 C 322.171 359.340,322.903 358.800,323.167 358.800 C 323.431 358.800,323.536 358.620,323.400 358.400 C 323.264 358.180,323.433 358.000,323.776 358.000 C 324.119 358.000,324.400 357.790,324.400 357.533 C 324.400 357.277,324.495 357.162,324.611 357.277 C 324.727 357.393,325.479 356.886,326.283 356.150 C 327.087 355.413,327.813 354.880,327.898 354.964 C 327.982 355.049,328.714 354.455,329.525 353.645 C 330.336 352.835,331.604 351.748,332.341 351.229 C 333.754 350.236,341.193 342.941,341.013 342.726 C 340.955 342.657,341.333 342.189,341.854 341.686 C 342.374 341.183,342.800 340.861,342.800 340.971 C 342.800 341.346,350.288 333.681,351.229 332.341 C 351.748 331.604,352.835 330.336,353.645 329.525 C 354.455 328.714,355.049 327.982,354.964 327.898 C 354.880 327.813,355.413 327.087,356.150 326.283 C 356.886 325.479,357.393 324.727,357.277 324.611 C 357.162 324.495,357.277 324.400,357.533 324.400 C 357.790 324.400,358.000 324.119,358.000 323.776 C 358.000 323.433,358.180 323.264,358.400 323.400 C 358.620 323.536,358.800 323.431,358.800 323.167 C 358.800 322.903,359.340 322.171,360.000 321.540 C 360.660 320.909,361.200 320.207,361.200 319.980 C 361.200 319.753,361.560 319.180,362.000 318.708 C 362.440 318.236,362.800 317.602,362.800 317.301 C 362.800 316.999,362.980 316.864,363.200 317.000 C 363.420 317.136,363.600 316.967,363.600 316.624 C 363.600 316.281,363.780 316.000,364.000 316.000 C 364.220 316.000,364.400 315.719,364.400 315.376 C 364.400 315.007,364.588 314.869,364.862 315.038 C 365.127 315.202,365.216 315.149,365.070 314.914 C 364.931 314.689,365.263 313.986,365.808 313.352 C 366.353 312.718,366.799 312.015,366.800 311.788 C 366.800 311.562,367.160 311.117,367.600 310.800 C 368.040 310.483,368.400 309.969,368.400 309.659 C 368.400 309.348,368.715 308.802,369.100 308.446 C 369.896 307.709,371.141 305.742,371.471 304.700 C 371.593 304.315,371.852 304.000,372.047 304.000 C 372.241 304.000,372.400 303.730,372.400 303.400 C 372.400 303.070,372.591 302.800,372.824 302.800 C 373.057 302.800,373.145 302.635,373.020 302.432 C 372.895 302.230,373.077 301.780,373.425 301.432 C 373.773 301.085,373.941 300.800,373.800 300.800 C 373.658 300.800,373.915 300.326,374.371 299.746 C 374.827 299.166,375.200 298.439,375.200 298.129 C 375.200 297.820,375.560 297.180,376.000 296.708 C 376.440 296.236,376.800 295.613,376.800 295.325 C 376.800 295.036,376.980 294.800,377.200 294.800 C 377.420 294.800,377.600 294.528,377.600 294.195 C 377.600 293.634,378.330 292.063,378.805 291.600 C 378.918 291.490,379.456 290.500,380.000 289.400 C 380.544 288.300,381.172 287.268,381.395 287.106 C 381.618 286.944,381.644 286.809,381.454 286.806 C 381.264 286.803,381.399 286.356,381.754 285.814 C 382.109 285.272,382.400 284.462,382.400 284.014 C 382.400 283.566,382.580 283.200,382.800 283.200 C 383.020 283.200,383.200 282.840,383.200 282.400 C 383.200 281.960,383.380 281.600,383.600 281.600 C 383.820 281.600,384.000 281.251,384.000 280.824 C 384.000 280.397,384.180 279.936,384.400 279.800 C 384.620 279.664,384.800 279.203,384.800 278.776 C 384.800 278.349,384.980 278.000,385.200 278.000 C 385.420 278.000,385.600 277.550,385.600 277.000 C 385.600 276.450,385.780 276.000,386.000 276.000 C 386.220 276.000,386.400 275.640,386.400 275.200 C 386.400 274.760,386.542 274.400,386.715 274.400 C 386.888 274.400,387.060 274.001,387.097 273.513 C 387.133 273.026,387.515 271.901,387.945 271.013 C 388.879 269.083,389.270 268.063,389.468 267.031 C 389.549 266.609,389.814 266.024,390.057 265.731 C 390.299 265.439,390.390 265.200,390.259 265.200 C 390.127 265.200,390.211 264.705,390.445 264.100 C 390.985 262.706,391.238 261.734,391.488 260.100 C 391.598 259.385,391.848 258.800,392.044 258.800 C 392.240 258.800,392.400 258.170,392.400 257.400 C 392.400 256.630,392.560 256.000,392.756 256.000 C 392.952 256.000,393.227 255.325,393.368 254.500 C 393.990 250.849,394.107 250.400,394.444 250.400 C 394.640 250.400,394.800 249.680,394.800 248.800 C 394.800 247.920,394.980 247.200,395.200 247.200 C 395.420 247.200,395.600 246.491,395.600 245.624 C 395.600 244.757,395.780 243.936,396.000 243.800 C 396.220 243.664,396.400 242.753,396.400 241.776 C 396.400 240.799,396.580 240.000,396.800 240.000 C 397.020 240.000,397.200 239.021,397.200 237.824 C 397.200 236.627,397.380 235.536,397.600 235.400 C 397.820 235.264,398.000 234.274,398.000 233.200 C 398.000 232.126,398.180 231.136,398.400 231.000 C 398.620 230.864,398.800 229.539,398.800 228.056 C 398.800 226.433,398.999 225.161,399.300 224.860 C 399.689 224.471,399.800 218.955,399.800 200.000 C 399.800 181.045,399.689 175.529,399.300 175.140 C 398.999 174.839,398.800 173.567,398.800 171.944 C 398.800 170.461,398.620 169.136,398.400 169.000 C 398.180 168.864,398.000 167.874,398.000 166.800 C 398.000 165.726,397.820 164.736,397.600 164.600 C 397.380 164.464,397.200 163.373,397.200 162.176 C 397.200 160.979,397.020 160.000,396.800 160.000 C 396.580 160.000,396.400 159.201,396.400 158.224 C 396.400 157.247,396.220 156.336,396.000 156.200 C 395.780 156.064,395.600 155.344,395.600 154.600 C 395.600 153.856,395.420 153.136,395.200 153.000 C 394.980 152.864,394.800 152.043,394.800 151.176 C 394.800 150.309,394.640 149.600,394.444 149.600 C 394.248 149.600,393.973 148.925,393.832 148.100 C 393.210 144.449,393.093 144.000,392.756 144.000 C 392.560 144.000,392.400 143.370,392.400 142.600 C 392.400 141.830,392.240 141.200,392.044 141.200 C 391.848 141.200,391.598 140.615,391.488 139.900 C 391.238 138.266,390.985 137.294,390.445 135.900 C 390.211 135.295,390.127 134.800,390.259 134.800 C 390.390 134.800,390.299 134.561,390.057 134.269 C 389.814 133.976,389.549 133.391,389.468 132.969 C 389.283 132.009,388.854 130.811,388.371 129.905 C 388.167 129.523,388.000 128.953,388.000 128.639 C 388.000 128.324,387.822 128.007,387.603 127.933 C 387.385 127.860,387.166 127.305,387.116 126.700 C 387.066 126.095,386.885 125.600,386.713 125.600 C 386.541 125.600,386.400 125.240,386.400 124.800 C 386.400 124.360,386.220 124.000,386.000 124.000 C 385.780 124.000,385.600 123.449,385.600 122.776 C 385.600 122.063,385.433 121.656,385.200 121.800 C 384.980 121.936,384.800 121.687,384.800 121.247 C 384.800 120.807,384.620 120.336,384.400 120.200 C 384.180 120.064,384.000 119.603,384.000 119.176 C 384.000 118.749,383.820 118.400,383.600 118.400 C 383.380 118.400,383.200 118.040,383.200 117.600 C 383.200 117.160,383.020 116.800,382.800 116.800 C 382.580 116.800,382.394 116.395,382.387 115.900 C 382.380 115.405,382.116 114.658,381.800 114.241 C 381.484 113.824,381.320 113.329,381.436 113.141 C 381.552 112.953,381.457 112.800,381.224 112.800 C 380.991 112.800,380.800 112.440,380.800 112.000 C 380.800 111.560,380.664 111.200,380.498 111.200 C 380.331 111.200,379.941 110.615,379.630 109.900 C 379.319 109.185,378.960 108.510,378.832 108.400 C 378.360 107.994,377.600 106.392,377.600 105.805 C 377.600 105.472,377.420 105.200,377.200 105.200 C 376.980 105.200,376.800 104.964,376.800 104.675 C 376.800 104.387,376.440 103.764,376.000 103.292 C 375.560 102.820,375.200 102.252,375.200 102.030 C 375.200 101.334,373.868 98.800,373.502 98.800 C 373.310 98.800,373.250 98.643,373.368 98.452 C 373.486 98.261,373.134 97.586,372.586 96.952 C 372.037 96.318,371.367 95.305,371.097 94.700 C 370.826 94.095,370.469 93.600,370.302 93.600 C 370.136 93.600,370.000 93.280,370.000 92.888 C 370.000 92.497,369.640 91.917,369.200 91.600 C 368.760 91.283,368.400 90.827,368.400 90.587 C 368.400 90.347,368.085 89.802,367.700 89.375 C 367.315 88.949,366.745 88.105,366.432 87.500 C 366.120 86.895,365.715 86.400,365.532 86.400 C 365.350 86.400,365.200 86.080,365.200 85.688 C 365.200 85.297,364.840 84.717,364.400 84.400 C 363.960 84.083,363.599 83.638,363.598 83.412 C 363.597 83.185,363.057 82.425,362.398 81.722 C 361.739 81.019,361.200 80.255,361.200 80.025 C 361.200 79.795,360.660 79.091,360.000 78.460 C 359.340 77.829,358.800 77.097,358.800 76.833 C 358.800 76.569,358.620 76.464,358.400 76.600 C 358.180 76.736,358.000 76.567,358.000 76.224 C 358.000 75.881,357.790 75.600,357.533 75.600 C 357.277 75.600,357.162 75.505,357.277 75.389 C 357.393 75.273,356.886 74.521,356.150 73.717 C 355.413 72.913,354.880 72.187,354.964 72.102 C 355.049 72.018,354.455 71.286,353.645 70.475 C 352.835 69.664,351.748 68.396,351.229 67.659 C 350.288 66.319,342.800 58.654,342.800 59.029 C 342.800 59.139,342.374 58.817,341.854 58.314 C 341.333 57.811,340.955 57.343,341.013 57.274 C 341.193 57.059,333.754 49.764,332.341 48.771 C 331.604 48.252,330.336 47.165,329.525 46.355 C 328.714 45.545,327.954 44.980,327.835 45.099 C 327.716 45.217,327.505 45.019,327.367 44.657 C 327.228 44.296,326.874 44.000,326.580 44.000 C 326.286 44.000,325.765 43.600,325.423 43.111 C 325.080 42.622,324.800 42.380,324.800 42.572 C 324.800 42.765,324.464 42.535,324.053 42.061 C 323.642 41.588,323.167 41.200,322.996 41.200 C 322.826 41.200,322.171 40.660,321.540 40.000 C 320.909 39.340,320.205 38.800,319.975 38.800 C 319.745 38.800,318.981 38.261,318.278 37.602 C 317.575 36.943,316.815 36.403,316.588 36.402 C 316.362 36.401,315.917 36.040,315.600 35.600 C 315.283 35.160,314.703 34.800,314.312 34.800 C 313.920 34.800,313.600 34.650,313.600 34.468 C 313.600 34.285,313.105 33.880,312.500 33.568 C 311.895 33.255,311.051 32.685,310.625 32.300 C 310.198 31.915,309.653 31.600,309.413 31.600 C 309.173 31.600,308.724 31.250,308.415 30.821 C 308.107 30.393,307.722 30.125,307.559 30.225 C 307.397 30.325,307.025 30.171,306.732 29.881 C 306.440 29.592,305.435 28.927,304.500 28.404 C 303.565 27.881,302.800 27.295,302.800 27.103 C 302.800 26.910,302.632 26.856,302.428 26.983 C 302.223 27.109,301.954 27.049,301.830 26.848 C 301.555 26.403,298.534 24.800,297.971 24.800 C 297.749 24.800,297.180 24.440,296.708 24.000 C 296.236 23.560,295.613 23.200,295.325 23.200 C 295.036 23.200,294.800 23.020,294.800 22.800 C 294.800 22.580,294.440 22.400,294.000 22.400 C 293.560 22.400,293.200 22.220,293.200 22.000 C 293.200 21.780,292.840 21.600,292.400 21.600 C 291.960 21.600,291.600 21.454,291.600 21.275 C 291.600 21.096,290.970 20.702,290.200 20.400 C 289.430 20.098,288.800 19.704,288.800 19.525 C 288.800 19.346,288.339 19.200,287.776 19.200 C 287.196 19.200,286.860 19.027,287.000 18.800 C 287.136 18.580,286.887 18.400,286.447 18.400 C 286.007 18.400,285.536 18.220,285.400 18.000 C 285.264 17.780,284.713 17.600,284.176 17.600 C 283.639 17.600,283.200 17.420,283.200 17.200 C 283.200 16.980,282.840 16.800,282.400 16.800 C 281.960 16.800,281.600 16.620,281.600 16.400 C 281.600 16.180,281.328 16.000,280.995 16.000 C 280.439 16.000,278.878 15.278,278.400 14.800 C 278.290 14.690,277.750 14.538,277.200 14.462 C 276.650 14.386,276.140 14.161,276.067 13.962 C 275.993 13.763,275.588 13.600,275.167 13.600 C 274.745 13.600,274.400 13.459,274.400 13.287 C 274.400 13.115,273.905 12.934,273.300 12.884 C 272.695 12.834,272.140 12.615,272.067 12.397 C 271.993 12.178,271.676 12.000,271.361 12.000 C 271.047 12.000,270.477 11.833,270.095 11.629 C 269.189 11.146,267.991 10.717,267.031 10.532 C 266.609 10.451,266.024 10.186,265.731 9.943 C 265.439 9.701,265.200 9.610,265.200 9.741 C 265.200 9.873,264.705 9.789,264.100 9.555 C 262.706 9.015,261.734 8.762,260.100 8.512 C 259.385 8.402,258.800 8.152,258.800 7.956 C 258.800 7.760,258.170 7.600,257.400 7.600 C 256.630 7.600,256.000 7.420,256.000 7.200 C 256.000 6.980,255.460 6.800,254.800 6.800 C 254.140 6.800,253.600 6.657,253.600 6.482 C 253.600 6.307,252.925 6.118,252.101 6.063 C 251.276 6.007,250.430 5.790,250.221 5.581 C 250.011 5.371,249.257 5.200,248.544 5.200 C 247.831 5.200,247.136 5.020,247.000 4.800 C 246.864 4.580,246.144 4.400,245.400 4.400 C 244.656 4.400,243.936 4.220,243.800 4.000 C 243.664 3.780,242.764 3.600,241.800 3.600 C 240.836 3.600,239.936 3.420,239.800 3.200 C 239.664 2.980,238.653 2.800,237.553 2.800 C 236.321 2.800,235.648 2.646,235.800 2.400 C 235.955 2.149,235.071 2.000,233.424 2.000 C 231.941 2.000,230.800 1.826,230.800 1.600 C 230.800 1.372,229.611 1.200,228.033 1.200 C 226.198 1.200,225.211 1.034,225.103 0.708 C 224.941 0.222,187.291 -0.126,178.300 0.275 M277.392 119.145 C 279.275 120.262,280.202 121.267,281.123 123.187 C 281.752 124.499,281.800 129.976,281.800 200.000 C 281.800 283.438,282.003 276.760,279.382 279.382 C 276.760 282.003,283.438 281.800,200.000 281.800 C 128.243 281.800,124.527 281.765,123.099 281.081 C 121.193 280.167,119.833 278.807,118.919 276.901 C 117.800 274.565,117.800 125.435,118.919 123.099 C 120.103 120.628,122.290 118.892,125.000 118.271 C 125.440 118.170,159.550 118.113,200.800 118.144 L 275.800 118.200 277.392 119.145 " stroke="none" fill="#e44c5c" fill-rule="evenodd"></path><path id="path2" d="" stroke="none" fill="#ec8c94" fill-rule="evenodd"></path><path id="path3" d="M162.700 118.700 C 183.215 118.757,216.785 118.757,237.300 118.700 C 257.815 118.643,241.030 118.596,200.000 118.596 C 158.970 118.596,142.185 118.643,162.700 118.700 M121.451 120.431 C 120.870 120.888,120.204 121.653,119.971 122.131 C 119.591 122.909,119.627 122.900,120.317 122.044 C 120.741 121.518,121.518 120.757,122.044 120.353 C 122.570 119.949,122.889 119.614,122.754 119.609 C 122.619 119.604,122.032 119.974,121.451 120.431 M277.956 120.317 C 278.482 120.741,279.262 121.518,279.691 122.044 C 280.119 122.570,280.336 122.730,280.174 122.400 C 279.692 121.421,278.664 120.353,277.804 119.936 C 277.194 119.640,277.230 119.732,277.956 120.317 M118.596 200.000 C 118.596 241.030,118.643 257.815,118.700 237.300 C 118.757 216.785,118.757 183.215,118.700 162.700 C 118.643 142.185,118.596 158.970,118.596 200.000 M281.396 200.000 C 281.396 240.810,281.443 257.505,281.500 237.100 C 281.557 216.695,281.557 183.305,281.500 162.900 C 281.443 142.495,281.396 159.190,281.396 200.000 M119.936 277.804 C 120.353 278.664,121.421 279.692,122.400 280.174 C 122.730 280.336,122.570 280.119,122.044 279.691 C 121.518 279.262,120.741 278.482,120.317 277.956 C 119.732 277.230,119.640 277.194,119.936 277.804 M278.638 278.895 C 277.162 280.435,277.328 280.629,278.937 279.244 C 279.573 278.696,280.640 277.138,280.314 277.233 C 280.251 277.252,279.497 277.999,278.638 278.895 M162.732 281.500 C 183.264 281.557,216.744 281.557,237.132 281.500 C 257.519 281.443,240.720 281.396,199.800 281.396 C 158.880 281.396,142.199 281.443,162.732 281.500 " stroke="none" fill="#f4acb4" fill-rule="evenodd"></path><path id="path4" d="M162.700 118.300 C 183.215 118.357,216.785 118.357,237.300 118.300 C 257.815 118.243,241.030 118.196,200.000 118.196 C 158.970 118.196,142.185 118.243,162.700 118.300 M120.640 120.640 C 119.848 121.432,119.200 122.266,119.200 122.494 C 119.200 122.722,119.567 122.441,120.016 121.870 C 120.465 121.299,121.299 120.465,121.870 120.016 C 122.441 119.567,122.722 119.200,122.494 119.200 C 122.266 119.200,121.432 119.848,120.640 120.640 M278.130 120.016 C 278.701 120.465,279.535 121.299,279.984 121.870 C 280.433 122.441,280.800 122.722,280.800 122.494 C 280.800 121.955,278.045 119.200,277.506 119.200 C 277.278 119.200,277.559 119.567,278.130 120.016 M118.196 200.000 C 118.196 241.030,118.243 257.815,118.300 237.300 C 118.357 216.785,118.357 183.215,118.300 162.700 C 118.243 142.185,118.196 158.970,118.196 200.000 M281.796 200.000 C 281.796 241.030,281.843 257.815,281.900 237.300 C 281.957 216.785,281.957 183.215,281.900 162.700 C 281.843 142.185,281.796 158.970,281.796 200.000 M119.200 277.506 C 119.200 278.045,121.955 280.800,122.494 280.800 C 122.722 280.800,122.441 280.433,121.870 279.984 C 121.299 279.535,120.465 278.701,120.016 278.130 C 119.567 277.559,119.200 277.278,119.200 277.506 M278.947 279.055 C 278.038 280.015,277.435 280.800,277.607 280.800 C 278.042 280.800,280.800 278.001,280.800 277.560 C 280.800 277.087,280.851 277.046,278.947 279.055 M162.700 281.900 C 183.215 281.957,216.785 281.957,237.300 281.900 C 257.815 281.843,241.030 281.796,200.000 281.796 C 158.970 281.796,142.185 281.843,162.700 281.900 " stroke="none" fill="#e47c84" fill-rule="evenodd"></path></g></svg>