<svg id="svg" xmlns="http://www.w3.org/2000/svg" xmlns:xlink="http://www.w3.org/1999/xlink" width="400" height="400" viewBox="0, 0, 400,400" transform="rotate(0) scale(1, 1)">
	<g id="svgg">
		<path id="path0" d="M181.641 1.215 C 138.300 8.538,102.977 41.978,93.385 84.766 L 91.634 92.578 83.631 97.034 C 31.151 126.256,11.382 190.231,38.461 243.207 C 64.564 294.273,126.804 316.623,179.084 293.704 C 183.068 291.957,186.768 290.336,187.305 290.102 C 188.081 289.764,188.281 301.003,188.281 344.838 L 188.281 400.000 200.000 400.000 L 211.719 400.000 211.719 344.838 C 211.719 301.003,211.919 289.764,212.695 290.102 C 213.232 290.336,216.932 291.957,220.916 293.704 C 293.242 325.410,373.154 272.282,373.021 192.578 C 372.952 151.383,352.732 117.282,316.369 97.034 L 308.366 92.578 306.615 84.766 C 294.038 28.663,238.589 -8.407,181.641 1.215 M215.429 25.400 C 253.643 32.649,281.734 64.148,284.976 103.386 L 285.547 110.288 293.869 113.584 C 327.943 127.080,349.219 157.684,349.219 193.200 C 349.219 261.397,273.788 301.536,216.606 263.769 L 211.727 260.547 211.918 225.049 L 212.109 189.550 236.328 176.773 C 249.648 169.746,261.531 163.466,262.733 162.818 L 264.920 161.639 259.699 151.718 C 256.827 146.261,254.194 141.483,253.847 141.100 C 253.492 140.709,244.312 145.071,232.882 151.061 C 221.697 156.923,212.361 161.719,212.133 161.719 C 211.905 161.719,211.719 151.523,211.719 139.063 L 211.719 116.406 200.006 116.406 L 188.293 116.406 188.092 165.177 L 187.891 213.948 167.241 203.080 C 155.884 197.102,146.499 192.303,146.387 192.415 C 144.627 194.175,135.315 213.678,136.025 214.117 C 136.529 214.428,148.493 220.758,162.611 228.184 L 188.281 241.684 188.271 251.116 L 188.261 260.547 183.388 263.769 C 126.251 301.553,50.781 261.391,50.781 193.200 C 50.781 157.684,72.057 127.080,106.131 113.584 L 114.453 110.288 115.030 103.386 C 119.294 52.344,166.043 16.032,215.429 25.400 " stroke="none" fill="current" fill-rule="evenodd" />
	</g>
</svg>
