<?xml version="1.0" encoding="UTF-8"?>
<svg version="1.1" xmlns="http://www.w3.org/2000/svg" width="400" height="400" viewBox="0 0 400 400">
	<path d="M 66 40.500 L 66 51 108.500 51 L 151 51 151 40.500 L 151 30 108.500 30 L 66 30 66 40.500 M 167 221 L 167 270 177.500 270 L 188 270 188 264.320 L 188 258.640 191.694 262.956 C 196.585 268.670, 201.805 270.950, 210.054 270.978 C 223.799 271.024, 234.620 261.498, 238.046 246.336 C 238.646 243.676, 239.133 237.428, 239.128 232.450 C 239.114 219.967, 236.325 211.610, 229.784 204.454 C 223.791 197.897, 218.122 195.478, 208.922 195.554 C 200.949 195.620, 194.458 198.917, 190.837 204.741 L 188.500 208.500 188.227 190.250 L 187.955 172 177.477 172 L 167 172 167 221 M 280 195.691 C 274.595 196.596, 267.954 199.251, 264.084 202.054 C 247.058 214.388, 245.144 246.185, 260.502 261.552 C 273.780 274.838, 298.528 274.958, 312.085 261.802 C 326.218 248.086, 326.245 219.245, 312.139 205.139 C 304.530 197.530, 291.643 193.742, 280 195.691 M 281.450 212.359 C 269.974 217.537, 267.330 240.503, 276.969 251.291 C 279.639 254.280, 280.282 254.500, 286.337 254.500 C 291.824 254.500, 293.238 254.125, 295.394 252.099 C 301.786 246.095, 303.636 229.829, 298.982 220.552 C 297.617 217.831, 295.364 214.781, 293.977 213.776 C 290.561 211.302, 285.150 210.690, 281.450 212.359 M 197.418 212.914 C 194.176 214.311, 190.165 219.674, 188.928 224.267 C 187.319 230.244, 188.143 241.687, 190.525 246.435 C 193.363 252.091, 196.962 254.385, 203 254.385 C 212.147 254.385, 217.157 247.991, 217.823 235.471 C 218.298 226.535, 216.738 220.776, 212.628 216.291 C 209.897 213.311, 208.585 212.684, 204.438 212.380 C 201.722 212.181, 198.563 212.421, 197.418 212.914 M 129.314 262.950 C 125.392 265.342, 123.800 268.172, 123.800 272.752 C 123.800 277.239, 128.144 281.825, 133.168 282.640 C 143.526 284.321, 151.032 271.926, 143.698 265.251 C 138.545 260.561, 134.337 259.888, 129.314 262.950 M 75 283 L 75 292 70 292 L 65 292 65 300.500 L 65 309 70 309 L 75 309 75 328.951 C 75 352.495, 75.873 357.747, 80.670 363.057 C 85.479 368.379, 91.863 370.363, 102.404 369.810 C 106.898 369.574, 111.048 369.089, 111.626 368.731 C 112.342 368.288, 112.146 365.604, 111.009 360.291 L 109.341 352.500 105.249 352.828 C 102.145 353.077, 100.655 352.655, 99.078 351.078 C 97.112 349.112, 97 347.918, 97 329 L 97 309 104 309 L 111 309 111 300.500 L 111 292 104 292 L 97 292 97 283 L 97 274 86 274 L 75 274 75 283 M 190.917 292.035 C 170.593 294.460, 157.334 312.626, 159.396 335.225 C 161.110 354.013, 171.374 366.166, 188.475 369.653 C 209.124 373.864, 227.781 363.052, 230.586 345.250 L 231.256 341 221.352 341 L 211.448 341 209.474 345.202 C 206.806 350.881, 203.408 353.167, 197.635 353.167 C 191.176 353.167, 187.032 350.527, 184 344.483 C 181.884 340.265, 181.502 338.118, 181.511 330.500 C 181.521 322.781, 181.876 320.867, 184.011 317.051 C 187.083 311.561, 191.796 308.667, 197.666 308.667 C 203.184 308.667, 206.835 311.181, 209.474 316.798 L 211.448 321 221.356 321 L 231.263 321 230.725 316.985 C 228.492 300.339, 211.352 289.596, 190.917 292.035 M 268.914 292.142 C 252.024 293.836, 242.063 303.684, 243.213 317.552 C 244.159 328.963, 251.212 334.352, 270.561 338.450 C 283.867 341.268, 287.500 343.224, 287.500 347.568 C 287.500 356.445, 267.986 357.676, 263.541 349.079 C 261.982 346.064, 261.796 346, 254.599 346 C 250.557 346, 245.811 346.288, 244.052 346.640 C 241.201 347.210, 240.923 347.563, 241.495 349.890 C 244.570 362.396, 257.084 370.132, 274.500 370.293 C 289.780 370.434, 301.261 365.530, 306.473 356.637 C 311.057 348.814, 310.813 339.846, 305.844 333.529 C 302.631 329.444, 294.646 326.010, 282.260 323.387 C 265.515 319.840, 261.719 317.131, 265.469 311.406 C 269.774 304.837, 282.741 305.609, 287.121 312.695 C 289.117 315.926, 289.590 316.165, 292.898 315.618 C 294.879 315.290, 299.087 315.017, 302.250 315.011 C 308.841 314.998, 309.219 314.265, 306.129 307.500 C 300.837 295.914, 287.244 290.304, 268.914 292.142 M 124.699 292.634 C 124.315 293.019, 124 310.358, 124 331.167 L 124 369 135.012 369 L 146.024 369 145.762 330.750 L 145.500 292.500 135.449 292.217 C 129.922 292.062, 125.084 292.249, 124.699 292.634 M 331.415 347.409 C 326.645 349.505, 324 353.544, 324 358.735 C 324 362.480, 324.549 363.749, 327.400 366.600 C 330.174 369.374, 331.564 370, 334.950 370 C 340.484 370, 344.377 367.832, 346.365 363.643 C 348.505 359.133, 348.424 356.208, 346.050 352.314 C 342.901 347.149, 336.721 345.079, 331.415 347.409" stroke="none" fill="#e9ebeb" fill-rule="evenodd">
	</path>
	<path d="M 260.378 53.398 C 248.626 58.660, 254.571 75.991, 267.308 73.602 C 271.040 72.902, 275.424 68.759, 276.312 65.092 C 278.216 57.235, 268.211 49.891, 260.378 53.398 M 66.205 96.250 L 66.500 134.500 69.294 140.190 C 72.938 147.610, 81.208 155.184, 88.753 158.013 C 100.080 162.259, 115.936 162.254, 127.285 157.999 C 134.892 155.147, 143.919 146.848, 147.122 139.760 C 149.474 134.558, 149.503 134.076, 149.795 96.250 L 150.089 58 139.545 58 L 129 58 129 89.951 C 129 124.357, 128.390 130.195, 124.285 135.073 C 116.800 143.969, 100.116 144.391, 92.317 135.882 C 87.774 130.926, 87.577 129.260, 87.210 92.750 L 86.861 58 76.386 58 L 65.911 58 66.205 96.250 M 199.081 85.647 C 195.297 87.532, 192.940 89.602, 190.885 92.843 L 188 97.392 188 90.696 L 188 84 177.500 84 L 167 84 167 122 L 167 160 178 160 L 189 160 189.004 135.250 C 189.007 112.482, 189.163 110.244, 190.956 107.304 C 192.028 105.547, 194.104 103.323, 195.570 102.362 C 199.337 99.894, 207.234 100.042, 210.754 102.648 C 216.140 106.634, 216.472 108.416, 216.827 135.250 L 217.154 160 227.577 160 L 238 160 238 134.049 C 238 119.149, 237.537 105.941, 236.914 103.033 C 235.308 95.546, 230.544 89.116, 224.136 85.787 C 216.630 81.887, 206.736 81.832, 199.081 85.647 M 254 122 L 254 160 265 160 L 276 160 276 122 L 276 84 265 84 L 254 84 254 122" stroke="none" fill="#eb8444" fill-rule="evenodd">
	</path>
	<path d="M -0 200.002 L -0 400.005 200.250 399.752 L 400.500 399.500 400.752 199.750 L 401.005 0 200.502 0 L 0 0 -0 200.002 M 0.490 200.500 C 0.490 310.500, 0.607 355.352, 0.750 300.170 C 0.893 244.989, 0.893 154.989, 0.750 100.170 C 0.607 45.352, 0.490 90.500, 0.490 200.500 M 66 40.500 L 66 51 108.500 51 L 151 51 151 40.500 L 151 30 108.500 30 L 66 30 66 40.500 M 260.378 53.398 C 248.626 58.660, 254.571 75.991, 267.308 73.602 C 271.040 72.902, 275.424 68.759, 276.312 65.092 C 278.216 57.235, 268.211 49.891, 260.378 53.398 M 66.205 96.250 L 66.500 134.500 69.294 140.190 C 72.938 147.610, 81.208 155.184, 88.753 158.013 C 100.080 162.259, 115.936 162.254, 127.285 157.999 C 134.892 155.147, 143.919 146.848, 147.122 139.760 C 149.474 134.558, 149.503 134.076, 149.795 96.250 L 150.089 58 139.545 58 L 129 58 129 89.951 C 129 124.357, 128.390 130.195, 124.285 135.073 C 116.800 143.969, 100.116 144.391, 92.317 135.882 C 87.774 130.926, 87.577 129.260, 87.210 92.750 L 86.861 58 76.386 58 L 65.911 58 66.205 96.250 M 199.081 85.647 C 195.297 87.532, 192.940 89.602, 190.885 92.843 L 188 97.392 188 90.696 L 188 84 177.500 84 L 167 84 167 122 L 167 160 178 160 L 189 160 189.004 135.250 C 189.007 112.482, 189.163 110.244, 190.956 107.304 C 192.028 105.547, 194.104 103.323, 195.570 102.362 C 199.337 99.894, 207.234 100.042, 210.754 102.648 C 216.140 106.634, 216.472 108.416, 216.827 135.250 L 217.154 160 227.577 160 L 238 160 238 134.049 C 238 119.149, 237.537 105.941, 236.914 103.033 C 235.308 95.546, 230.544 89.116, 224.136 85.787 C 216.630 81.887, 206.736 81.832, 199.081 85.647 M 254 122 L 254 160 265 160 L 276 160 276 122 L 276 84 265 84 L 254 84 254 122 M 167 221 L 167 270 177.500 270 L 188 270 188 264.320 L 188 258.640 191.694 262.956 C 196.585 268.670, 201.805 270.950, 210.054 270.978 C 223.799 271.024, 234.620 261.498, 238.046 246.336 C 238.646 243.676, 239.133 237.428, 239.128 232.450 C 239.114 219.967, 236.325 211.610, 229.784 204.454 C 223.791 197.897, 218.122 195.478, 208.922 195.554 C 200.949 195.620, 194.458 198.917, 190.837 204.741 L 188.500 208.500 188.227 190.250 L 187.955 172 177.477 172 L 167 172 167 221 M 280 195.691 C 274.595 196.596, 267.954 199.251, 264.084 202.054 C 247.058 214.388, 245.144 246.185, 260.502 261.552 C 273.780 274.838, 298.528 274.958, 312.085 261.802 C 326.218 248.086, 326.245 219.245, 312.139 205.139 C 304.530 197.530, 291.643 193.742, 280 195.691 M 281.450 212.359 C 269.974 217.537, 267.330 240.503, 276.969 251.291 C 279.639 254.280, 280.282 254.500, 286.337 254.500 C 291.824 254.500, 293.238 254.125, 295.394 252.099 C 301.786 246.095, 303.636 229.829, 298.982 220.552 C 297.617 217.831, 295.364 214.781, 293.977 213.776 C 290.561 211.302, 285.150 210.690, 281.450 212.359 M 197.418 212.914 C 194.176 214.311, 190.165 219.674, 188.928 224.267 C 187.319 230.244, 188.143 241.687, 190.525 246.435 C 193.363 252.091, 196.962 254.385, 203 254.385 C 212.147 254.385, 217.157 247.991, 217.823 235.471 C 218.298 226.535, 216.738 220.776, 212.628 216.291 C 209.897 213.311, 208.585 212.684, 204.438 212.380 C 201.722 212.181, 198.563 212.421, 197.418 212.914 M 129.314 262.950 C 125.392 265.342, 123.800 268.172, 123.800 272.752 C 123.800 277.239, 128.144 281.825, 133.168 282.640 C 143.526 284.321, 151.032 271.926, 143.698 265.251 C 138.545 260.561, 134.337 259.888, 129.314 262.950 M 75 283 L 75 292 70 292 L 65 292 65 300.500 L 65 309 70 309 L 75 309 75 328.951 C 75 352.495, 75.873 357.747, 80.670 363.057 C 85.479 368.379, 91.863 370.363, 102.404 369.810 C 106.898 369.574, 111.048 369.089, 111.626 368.731 C 112.342 368.288, 112.146 365.604, 111.009 360.291 L 109.341 352.500 105.249 352.828 C 102.145 353.077, 100.655 352.655, 99.078 351.078 C 97.112 349.112, 97 347.918, 97 329 L 97 309 104 309 L 111 309 111 300.500 L 111 292 104 292 L 97 292 97 283 L 97 274 86 274 L 75 274 75 283 M 190.917 292.035 C 170.593 294.460, 157.334 312.626, 159.396 335.225 C 161.110 354.013, 171.374 366.166, 188.475 369.653 C 209.124 373.864, 227.781 363.052, 230.586 345.250 L 231.256 341 221.352 341 L 211.448 341 209.474 345.202 C 206.806 350.881, 203.408 353.167, 197.635 353.167 C 191.176 353.167, 187.032 350.527, 184 344.483 C 181.884 340.265, 181.502 338.118, 181.511 330.500 C 181.521 322.781, 181.876 320.867, 184.011 317.051 C 187.083 311.561, 191.796 308.667, 197.666 308.667 C 203.184 308.667, 206.835 311.181, 209.474 316.798 L 211.448 321 221.356 321 L 231.263 321 230.725 316.985 C 228.492 300.339, 211.352 289.596, 190.917 292.035 M 268.914 292.142 C 252.024 293.836, 242.063 303.684, 243.213 317.552 C 244.159 328.963, 251.212 334.352, 270.561 338.450 C 283.867 341.268, 287.500 343.224, 287.500 347.568 C 287.500 356.445, 267.986 357.676, 263.541 349.079 C 261.982 346.064, 261.796 346, 254.599 346 C 250.557 346, 245.811 346.288, 244.052 346.640 C 241.201 347.210, 240.923 347.563, 241.495 349.890 C 244.570 362.396, 257.084 370.132, 274.500 370.293 C 289.780 370.434, 301.261 365.530, 306.473 356.637 C 311.057 348.814, 310.813 339.846, 305.844 333.529 C 302.631 329.444, 294.646 326.010, 282.260 323.387 C 265.515 319.840, 261.719 317.131, 265.469 311.406 C 269.774 304.837, 282.741 305.609, 287.121 312.695 C 289.117 315.926, 289.590 316.165, 292.898 315.618 C 294.879 315.290, 299.087 315.017, 302.250 315.011 C 308.841 314.998, 309.219 314.265, 306.129 307.500 C 300.837 295.914, 287.244 290.304, 268.914 292.142 M 124.699 292.634 C 124.315 293.019, 124 310.358, 124 331.167 L 124 369 135.012 369 L 146.024 369 145.762 330.750 L 145.500 292.500 135.449 292.217 C 129.922 292.062, 125.084 292.249, 124.699 292.634 M 331.415 347.409 C 326.645 349.505, 324 353.544, 324 358.735 C 324 362.480, 324.549 363.749, 327.400 366.600 C 330.174 369.374, 331.564 370, 334.950 370 C 340.484 370, 344.377 367.832, 346.365 363.643 C 348.505 359.133, 348.424 356.208, 346.050 352.314 C 342.901 347.149, 336.721 345.079, 331.415 347.409" stroke="none" fill="#2cccdc" fill-rule="evenodd">
	</path>
</svg>
